<svg xmlns="http://www.w3.org/2000/svg" width="70" height="70" viewBox="0 0 70 70" fill="none"><path fill-rule="evenodd" clip-rule="evenodd" d="M34.4552 53.7562L18.4844 44.5366V26.096L34.4552 35.3163V53.7562ZM25.1896 21.5934L41.1603 30.813L44.8111 28.704L28.8404 19.4844L25.1896 21.5934ZM41.7087 31.7605L45.3596 29.6512V36.5976L41.7087 38.7077V31.7605Z" fill="#FFF5E0"></path><path fill-rule="evenodd" clip-rule="evenodd" d="M13.9588 9.77627C13.6822 9.4141 13.5729 8.96758 13.6371 8.51928C13.6951 8.07153 13.933 7.67518 14.2934 7.40311C14.5864 7.18263 14.9432 7.0636 15.3099 7.06404C15.3871 7.06404 15.4707 7.06979 15.5543 7.08141C16.4743 7.21334 17.124 8.07344 16.9889 8.99848C16.9245 9.44623 16.6931 9.84313 16.3262 10.1147C15.966 10.3862 15.5221 10.5006 15.0717 10.437C14.8516 10.4065 14.6398 10.3323 14.4487 10.2188C14.2576 10.1054 14.091 9.95491 13.9588 9.77627ZM15.3227 12.3683C16.0948 12.3683 16.8474 12.1194 17.4778 11.6452C18.2499 11.0669 18.7516 10.2228 18.8867 9.26877C18.964 8.69428 18.906 8.13141 18.7324 7.61543C29.3409 1.3358 42.8766 1.79326 53.0412 8.74965L49.8632 9.30104C49.3422 9.39113 48.9882 9.88647 49.0783 10.407C49.118 10.6291 49.2345 10.8302 49.4073 10.9753C49.5801 11.1204 49.7984 11.2002 50.024 11.2009C50.0754 11.2009 50.1334 11.1964 50.1848 11.1867L55.5759 10.2531C55.8268 10.2094 56.0455 10.0686 56.1934 9.86145C56.2666 9.75906 56.3185 9.64308 56.3461 9.52032C56.3737 9.39756 56.3765 9.27052 56.3542 9.14668L55.4214 3.75873C55.4 3.63484 55.3544 3.51637 55.2873 3.41011C55.2201 3.30385 55.1326 3.21188 55.0298 3.13946C54.9271 3.06704 54.811 3.01559 54.6883 2.98806C54.5657 2.96053 54.4388 2.95746 54.3149 2.97903C53.7937 3.06912 53.4463 3.56445 53.5364 4.08563L54.0639 7.12926C48.8207 3.54791 42.7156 1.52912 36.3208 1.27756C29.7266 1.01834 23.2997 2.65883 17.6642 6.02471C17.156 5.58926 16.5319 5.28738 15.8242 5.18649C14.8657 5.05072 13.92 5.29395 13.1479 5.87295C12.3759 6.45127 11.8741 7.29537 11.7391 8.2494C11.604 9.2041 11.8484 10.1543 12.4274 10.925C13.0064 11.6964 13.8492 12.1955 14.8013 12.332C14.9753 12.356 15.1491 12.3683 15.3227 12.3683ZM10.4398 54.9279C10.3754 55.375 10.1374 55.7713 9.77715 56.0434C9.59885 56.1781 9.39556 56.276 9.17909 56.3314C8.96262 56.3869 8.73728 56.3987 8.51619 56.3663C7.59621 56.2339 6.95295 55.3738 7.0816 54.4479C7.20383 53.6045 7.93076 52.9933 8.76064 52.9933C8.83789 52.9933 8.915 52.9992 8.99867 53.0095C9.44902 53.0739 9.8414 53.3093 10.1117 53.6715C10.3884 54.0324 10.4978 54.4796 10.4398 54.9279ZM9.26896 51.115C8.71357 51.0353 8.1472 51.0873 7.61562 51.2669C1.33025 40.6505 1.78703 27.1244 8.74793 16.9597L9.30123 20.1397C9.3849 20.6055 9.78371 20.9336 10.2405 20.9336C10.3803 20.9341 10.5185 20.904 10.6454 20.8453C10.7723 20.7866 10.8848 20.7009 10.975 20.594C11.0652 20.4871 11.1308 20.3618 11.1673 20.2268C11.2038 20.0919 11.2102 19.9505 11.1862 19.8128L10.2533 14.4248C10.2319 14.301 10.1863 14.1825 10.1191 14.0763C10.0519 13.9701 9.96436 13.8781 9.8616 13.8057C9.75883 13.7333 9.6428 13.6818 9.52014 13.6543C9.39748 13.6267 9.2706 13.6236 9.14674 13.6451L3.75564 14.5792C3.24104 14.6693 2.88721 15.1646 2.97717 15.6851C2.99854 15.809 3.04413 15.9275 3.11132 16.0337C3.17852 16.14 3.266 16.2319 3.36876 16.3043C3.47153 16.3768 3.58756 16.4282 3.71022 16.4557C3.83289 16.4833 3.95978 16.4864 4.08363 16.4648L7.13301 15.9372C3.55604 21.1649 1.54244 27.2508 1.27871 33.6263C1.00855 40.2353 2.64904 46.686 6.02654 52.337C5.57451 52.8572 5.28193 53.4967 5.18381 54.1788C4.90723 56.1488 6.27742 57.9791 8.25246 58.2608C8.4198 58.2859 8.59344 58.2982 8.76707 58.2982C9.53912 58.2982 10.2918 58.048 10.9222 57.5744C11.6942 56.9961 12.196 56.1513 12.3311 55.1972C12.4661 54.2425 12.2217 53.2923 11.6491 52.5217C11.0704 51.7506 10.2211 51.252 9.26896 51.115ZM56.3673 61.481C56.2323 62.4055 55.3767 63.052 54.4503 62.9188C53.5239 62.7869 52.8806 61.9268 53.0093 61.0011C53.1315 60.1577 53.8584 59.5465 54.6883 59.5465C54.7655 59.5465 54.8491 59.5517 54.9263 59.5627C55.3767 59.6271 55.7691 59.8625 56.0458 60.2247C56.1797 60.4025 56.277 60.605 56.3322 60.8207C56.3874 61.0363 56.3993 61.2607 56.3673 61.481ZM55.1965 57.6679C53.2279 57.3861 51.3943 58.7615 51.1178 60.7315C51.0362 61.2866 51.0869 61.8531 51.2657 62.3848C40.6443 68.6766 27.1279 68.2115 16.9632 61.2499L20.1413 60.6985C20.6624 60.6084 21.0097 60.1138 20.9197 59.5926C20.8296 59.0716 20.3343 58.7235 19.8131 58.8136L14.4285 59.7471C14.1773 59.7909 13.9533 59.9313 13.8045 60.1383C13.6624 60.3479 13.605 60.6035 13.6437 60.8537L14.5765 66.2417C14.6162 66.4638 14.7326 66.665 14.9054 66.8101C15.0782 66.9552 15.2965 67.0349 15.5222 67.0355C15.5737 67.0355 15.6316 67.0304 15.6896 67.0207C16.2042 66.9306 16.558 66.4353 16.468 65.9148L15.9404 62.8699C21.145 66.4288 27.2117 68.445 33.5677 68.7172C34.0566 68.7391 34.5455 68.7487 35.0346 68.7487C41.1526 68.7487 47.0907 67.112 52.3337 63.9758C52.8419 64.4107 53.4725 64.713 54.1801 64.814C54.3484 64.838 54.5183 64.8498 54.6883 64.8495C56.4574 64.8495 58.0078 63.548 58.2589 61.7506C58.3939 60.7959 58.1559 59.8457 57.5769 59.075C56.9979 58.3035 56.1552 57.8043 55.1965 57.6679ZM60.9994 16.99C60.7795 16.9585 60.568 16.884 60.377 16.7706C60.186 16.6572 60.0193 16.5073 59.8863 16.3293C59.7526 16.1513 59.6553 15.9487 59.6 15.7329C59.5448 15.5172 59.5328 15.2927 59.5646 15.0723C59.629 14.6246 59.8606 14.2282 60.2209 13.9562C60.5232 13.7343 60.8707 13.6171 61.2374 13.6171C61.3211 13.6171 61.3982 13.6229 61.4819 13.6338C62.4083 13.7663 63.0515 14.6265 62.9164 15.5515C62.8586 15.9993 62.6204 16.3956 62.2602 16.6677C61.8937 16.9391 61.4497 17.0537 60.9994 16.99ZM63.9779 17.6655C64.4219 17.1483 64.7177 16.5139 64.8142 15.8217C65.0972 13.8519 63.7206 12.0202 61.752 11.7398C60.7935 11.6034 59.8478 11.8466 59.0757 12.4256C58.3037 13.0039 57.8019 13.848 57.6669 14.8027C57.5318 15.7568 57.7762 16.707 58.3552 17.4778C58.9342 18.2491 59.777 18.7483 60.7291 18.8847C60.9029 18.9092 61.0765 18.9214 61.2503 18.9214C61.6362 18.9214 62.0223 18.8584 62.389 18.7361C68.6551 29.3266 68.1983 42.8875 61.2503 53.0386L60.6969 49.8599C60.6756 49.736 60.63 49.6176 60.5628 49.5114C60.4955 49.4052 60.4081 49.3133 60.3053 49.2409C60.2025 49.1685 60.0865 49.1172 59.9638 49.0897C59.8412 49.0622 59.7143 49.0592 59.5905 49.0809C59.4667 49.1022 59.3484 49.1478 59.2422 49.215C59.1361 49.2822 59.0442 49.3696 58.9719 49.4724C58.8996 49.5751 58.8482 49.6911 58.8208 49.8137C58.7934 49.9362 58.7904 50.063 58.812 50.1868L59.7448 55.5747C59.7845 55.7969 59.9008 55.9982 60.0737 56.1434C60.2465 56.2886 60.4648 56.3685 60.6905 56.3692C60.7419 56.3692 60.7999 56.3633 60.8513 56.3538L66.2424 55.4202C66.7634 55.3301 67.111 54.8348 67.0209 54.3143C66.9994 54.1905 66.9538 54.072 66.8866 53.9658C66.8194 53.8596 66.7319 53.7677 66.6292 53.6953C66.5264 53.6229 66.4104 53.5714 66.2878 53.5438C66.1651 53.5163 66.0383 53.5131 65.9144 53.5346L62.8715 54.0628C66.4741 48.7868 68.4942 42.6372 68.7258 36.2096C68.9638 29.6591 67.3233 23.2658 63.9779 17.6655ZM35.9544 53.0456V35.5527L40.2003 33.1023V39.654C40.2003 39.9956 40.387 40.3114 40.6828 40.4826C40.8243 40.5682 40.9917 40.6106 41.1589 40.6106C41.3261 40.6106 41.487 40.5682 41.6349 40.4826L46.3828 37.7426C46.528 37.6584 46.6484 37.5374 46.732 37.3919C46.8155 37.2463 46.8593 37.0813 46.8588 36.9134V29.2565L51.1048 26.8061V44.2995L35.9544 53.0456ZM18.8933 26.806L34.0438 35.5527V53.0456L18.8933 44.2994V26.806ZM42.1176 31.997V37.9968L44.9482 36.3608V30.3617L42.1176 31.997ZM41.159 30.3392L43.9896 28.7039L28.8392 19.9577L26.0085 21.5931L41.159 30.3392ZM35.0023 33.8948L39.2418 31.4444L24.0978 22.6982L19.8517 25.1487L35.0023 33.8948ZM35.0023 16.4019L30.7564 18.8523L45.9069 27.5991L50.1464 25.1485L35.0023 16.4019ZM35.4784 14.468C35.3326 14.3839 35.1673 14.3397 34.9991 14.3397C34.8308 14.3397 34.6656 14.3839 34.5198 14.468L17.4587 24.3195C17.3135 24.4037 17.193 24.5247 17.1095 24.6702C17.0259 24.8158 16.9822 24.9808 16.9826 25.1487V44.8513C16.9821 45.0191 17.0258 45.184 17.1094 45.3295C17.193 45.475 17.3135 45.5958 17.4587 45.6798L34.5198 55.5318C34.6667 55.616 34.833 55.6603 35.0023 55.6604C35.1631 55.6604 35.3304 55.6167 35.4784 55.5318L52.5395 45.6798C52.8355 45.5094 53.022 45.1935 53.022 44.8513V25.1488C53.022 24.8066 52.8354 24.4906 52.5395 24.3196L35.4784 14.468Z" fill="#FFA920"></path></svg>