<svg xmlns="http://www.w3.org/2000/svg" width="50" height="50" viewBox="0 0 50 50" fill="none"><path d="M32.8125 10.9375C34.4701 10.9375 36.0598 11.596 37.2319 12.7681C38.404 13.9402 39.0625 15.5299 39.0625 17.1875M45.3125 17.1875C45.3128 19.0106 44.9142 20.8118 44.1448 22.4646C43.3754 24.1175 42.2537 25.582 40.8585 26.7555C39.4632 27.9291 37.8282 28.7832 36.0679 29.258C34.3077 29.7328 32.4649 29.8168 30.6687 29.5041C29.4958 29.3021 28.2542 29.5583 27.4125 30.4L21.875 35.9375H17.1875V40.625H12.5V45.3125H4.6875V39.4416C4.6875 38.1979 5.18125 37.0041 6.06042 36.1271L19.6 22.5875C20.4417 21.7458 20.6979 20.5041 20.4958 19.3312C20.2004 17.6253 20.2626 15.8766 20.6784 14.196C21.0942 12.5154 21.8546 10.9395 22.9114 9.56815C23.9682 8.19681 25.2983 7.05996 26.8175 6.22963C28.3367 5.39931 30.0118 4.89362 31.7367 4.74462C33.4616 4.59562 35.1986 4.80656 36.8377 5.36406C38.4768 5.92156 39.9822 6.81347 41.2585 7.98327C42.5348 9.15307 43.5542 10.5752 44.252 12.1597C44.9499 13.7441 45.311 15.4562 45.3125 17.1875Z" stroke="#FFA920" stroke-width="2" stroke-linecap="round" stroke-linejoin="round"></path></svg>