<svg xmlns="http://www.w3.org/2000/svg" width="30" height="30" viewBox="0 0 30 30" fill="none"><path d="M28.0936 11.3076H25.2699V15.9908C25.2699 18.3363 23.3617 20.2445 21.0161 20.2445H14.1611V21.9843C14.1611 23.0355 15.0165 23.8909 16.0677 23.8909H22.1351L25.028 27.3976C25.2012 27.6074 25.4571 27.7249 25.7224 27.7249C25.7883 27.7249 25.8549 27.7175 25.9211 27.7027C26.2523 27.6278 26.5132 27.3726 26.5956 27.043L27.3839 23.8909H28.0936C29.1449 23.8909 30.0002 23.0358 30.0002 21.9843V13.2142C30.0002 12.1627 29.1449 11.3076 28.0936 11.3076Z" fill="#FFA920"></path><path d="M21.0159 0H2.45361C1.10069 0 0 1.10069 0 2.45361V15.9906C0 17.3435 1.10069 18.444 2.45361 18.444H4.25743L5.56664 23.6799C5.6488 24.0097 5.90973 24.2647 6.24115 24.3398C6.3073 24.3546 6.37367 24.362 6.43982 24.362C6.70509 24.3617 6.96098 24.2443 7.13402 24.0344L11.7462 18.444H21.0159C22.3689 18.444 23.4695 17.3435 23.4695 15.9906V2.45361C23.4695 1.10069 22.3689 0 21.0159 0V0ZM17.021 8.59955L15.0309 10.5396L15.5008 13.2786C15.5587 13.6164 15.4198 13.9577 15.1426 14.1591C14.9858 14.2731 14.8002 14.331 14.6134 14.331C14.4701 14.331 14.3264 14.2969 14.1946 14.2275L11.7348 12.9343L9.27475 14.2275C8.97148 14.3871 8.60413 14.3605 8.32672 14.1591C8.04955 13.9577 7.91084 13.6164 7.96875 13.2786L8.43864 10.5393L6.44829 8.59955C6.20316 8.36037 6.11481 8.00262 6.22055 7.67693C6.32652 7.351 6.60828 7.11342 6.94725 7.06421L9.69749 6.66458L10.9275 4.17229C11.0793 3.86513 11.3921 3.67058 11.7348 3.67058C12.0774 3.67058 12.3903 3.86513 12.5418 4.17229L13.7718 6.66458L16.5221 7.06421C16.8613 7.11342 17.143 7.351 17.2488 7.67693C17.3547 8.00285 17.2664 8.36037 17.021 8.59955Z" fill="#FFA920"></path><path d="M12.3666 7.88629L11.7344 6.60547L11.1023 7.88629C10.9711 8.15202 10.7177 8.33604 10.4245 8.37885L9.01074 8.58415L10.0336 9.58139C10.2458 9.78807 10.3426 10.0861 10.2925 10.3781L10.051 11.786L11.3156 11.1213C11.5777 10.9835 11.891 10.9835 12.1533 11.1213L13.4176 11.786L13.1762 10.3781C13.126 10.0861 13.2229 9.78807 13.435 9.58139L14.4579 8.58415L13.0443 8.37885C12.7511 8.33604 12.4978 8.15202 12.3666 7.88629Z" fill="#FFA920"></path></svg>