<svg xmlns="http://www.w3.org/2000/svg" width="50" height="50" viewBox="0 0 50 50" fill="none"><path d="M25.001 37.4999V26.5624M25.001 26.5624C26.0551 26.5633 27.1051 26.431 28.126 26.1687M25.001 26.5624C23.947 26.5633 22.897 26.431 21.876 26.1687M29.6885 41.7479C26.5912 42.336 23.4109 42.336 20.3135 41.7479M28.126 46.7124C26.0484 46.93 23.9537 46.93 21.876 46.7124M29.6885 37.4999V37.0999C29.6885 35.052 31.0594 33.302 32.8302 32.2749C35.8052 30.5521 38.129 27.8962 39.4415 24.7188C40.754 21.5413 40.9819 18.0197 40.0899 14.6996C39.198 11.3795 37.236 8.44622 34.5078 6.35428C31.7797 4.26235 28.4379 3.12854 25 3.12854C21.5622 3.12854 18.2203 4.26235 15.4922 6.35428C12.7641 8.44622 10.802 11.3795 9.91006 14.6996C9.01811 18.0197 9.24604 21.5413 10.5585 24.7188C11.871 27.8962 14.1948 30.5521 17.1698 32.2749C18.9406 33.302 20.3135 35.052 20.3135 37.0999V37.4999" stroke="#FFA920" stroke-width="2" stroke-linecap="round" stroke-linejoin="round"></path></svg>