<svg xmlns="http://www.w3.org/2000/svg" width="30" height="30" viewBox="0 0 30 30" fill="none"><path d="M28.0934 11.3076H25.2697V15.9908C25.2697 18.3363 23.3615 20.2445 21.0159 20.2445H14.1609V21.9843C14.1609 23.0355 15.0162 23.8909 16.0675 23.8909H22.1349L25.0277 27.3976C25.201 27.6074 25.4569 27.7249 25.7222 27.7249C25.7881 27.7249 25.8547 27.7175 25.9208 27.7027C26.252 27.6278 26.513 27.3726 26.5954 27.043L27.3836 23.8909H28.0934C29.1446 23.8909 30 23.0358 30 21.9843V13.2142C30 12.1627 29.1446 11.3076 28.0934 11.3076Z" fill="white"></path><path d="M21.0159 0H2.45361C1.10069 0 0 1.10069 0 2.45361V15.9906C0 17.3435 1.10069 18.444 2.45361 18.444H4.25743L5.56664 23.6799C5.6488 24.0097 5.90973 24.2647 6.24115 24.3398C6.3073 24.3546 6.37367 24.362 6.43982 24.362C6.70509 24.3617 6.96098 24.2443 7.13402 24.0344L11.7462 18.444H21.0159C22.3689 18.444 23.4695 17.3435 23.4695 15.9906V2.45361C23.4695 1.10069 22.3689 0 21.0159 0V0ZM17.021 8.59955L15.0309 10.5396L15.5008 13.2786C15.5587 13.6164 15.4198 13.9577 15.1426 14.1591C14.9858 14.2731 14.8002 14.331 14.6134 14.331C14.4701 14.331 14.3264 14.2969 14.1946 14.2275L11.7348 12.9343L9.27475 14.2275C8.97148 14.3871 8.60413 14.3605 8.32672 14.1591C8.04955 13.9577 7.91084 13.6164 7.96875 13.2786L8.43864 10.5393L6.44829 8.59955C6.20316 8.36037 6.11481 8.00262 6.22055 7.67693C6.32652 7.351 6.60828 7.11342 6.94725 7.06421L9.69749 6.66458L10.9275 4.17229C11.0793 3.86513 11.3921 3.67058 11.7348 3.67058C12.0774 3.67058 12.3903 3.86513 12.5418 4.17229L13.7718 6.66458L16.5221 7.06421C16.8613 7.11342 17.143 7.351 17.2488 7.67693C17.3547 8.00285 17.2664 8.36037 17.021 8.59955Z" fill="white"></path><path d="M12.3669 7.88531L11.7347 6.60449L11.1025 7.88531C10.9714 8.15105 10.718 8.33507 10.4248 8.37787L9.01099 8.58318L10.0339 9.58041C10.246 9.78709 10.3428 10.0851 10.2927 10.3772L10.0513 11.785L11.3158 11.1203C11.5779 10.9825 11.8912 10.9825 12.1535 11.1203L13.4179 11.785L13.1764 10.3772C13.1263 10.0851 13.2231 9.78709 13.4353 9.58041L14.4581 8.58318L13.0446 8.37787C12.7514 8.33507 12.498 8.15105 12.3669 7.88531Z" fill="white"></path></svg>