<svg width="50" height="50" viewBox="0 0 50 50" fill="none" xmlns="http://www.w3.org/2000/svg">
<path d="M19.1219 22.6844L31.418 36.707L37.2961 30.3695L46.875 41.5406H47.6562V7.03125H2.34375V41.8195H3.125L19.1219 22.6844Z" fill="#FFA920"/>
<path d="M38.2812 22.6891V19.5641H41.4062V16.4391H38.2812V13.3141H35.1562V16.4391H32.0312V19.5641H35.1562V22.6891H38.2812Z" fill="#F1FAEE"/>
<path d="M49.2188 16.4391V5.46875H0.78125V44.5312H49.2188V19.5641H46.0938V38.2289L37.3438 28.0227L31.45 34.375L19.0938 20.282L7.03125 34.7109V39.5836L19.1508 25.0867L31.3852 39.0398L37.25 32.7164L44.7016 41.4062H3.90625V8.59375H46.0938V16.4391H49.2188Z" fill="#1C1C1E"/>
</svg>
