<svg width="36" height="36" viewBox="0 0 36 36" fill="none" xmlns="http://www.w3.org/2000/svg">
<g clip-path="url(#clip0_1523_44765)">
<path d="M32.121 0H3.87893C1.74009 0 0 1.74002 0 3.87886V27.6023C0 29.7411 1.74009 31.4812 3.87893 31.4812H13.0444L17.2541 35.691C17.3521 35.789 17.4683 35.8667 17.5963 35.9197C17.7243 35.9727 17.8614 36 17.9999 36C18.1384 36 18.2756 35.9727 18.4036 35.9197C18.5315 35.8667 18.6478 35.789 18.7457 35.691L22.9556 31.4812H32.1211C34.26 31.4812 36.0001 29.7411 36.0001 27.6023V3.87886C36 1.74002 34.2599 0 32.121 0ZM33.8906 27.6023C33.8906 28.578 33.0968 29.3719 32.121 29.3719H22.5187C22.2389 29.3719 21.9707 29.4829 21.773 29.6808L17.9999 33.4538L14.227 29.6808C14.1291 29.5829 14.0128 29.5052 13.8849 29.4521C13.7569 29.3991 13.6197 29.3719 13.4812 29.3719H3.87893C2.9032 29.3719 2.10938 28.578 2.10938 27.6023V3.87886C2.10938 2.90313 2.9032 2.10938 3.87893 2.10938H32.1211C33.0968 2.10938 33.8906 2.90313 33.8906 3.87886V27.6023Z" fill="#1C1C1E" stroke="white" stroke-width="0.7"/>
<path d="M27.0589 12.1321L21.4524 11.3171L18.9444 6.23621C18.8573 6.05976 18.7225 5.9112 18.5554 5.80732C18.3883 5.70345 18.1954 5.6484 17.9986 5.64841C17.8018 5.64841 17.609 5.70347 17.4419 5.80736C17.2747 5.91125 17.14 6.05982 17.0529 6.23628L14.5451 11.3171L8.93814 12.1321C8.7434 12.1604 8.56046 12.2426 8.41 12.3694C8.25955 12.4963 8.14759 12.6627 8.08678 12.8499C8.02596 13.037 8.01873 13.2375 8.06589 13.4285C8.11305 13.6196 8.21272 13.7936 8.35364 13.931L12.4111 17.8859L11.4534 23.4702C11.4202 23.6641 11.4419 23.8635 11.5161 24.0458C11.5902 24.228 11.7139 24.3859 11.8731 24.5016C12.0323 24.6172 12.2207 24.6861 12.4169 24.7003C12.6132 24.7145 12.8095 24.6735 12.9837 24.582L17.9986 21.9455L23.014 24.582C23.1653 24.6616 23.3337 24.7032 23.5046 24.7032H23.509C24.0902 24.7017 24.5609 24.23 24.5609 23.6485C24.5609 23.5675 24.5517 23.4886 24.5345 23.4128L23.5861 17.8859L27.6434 13.9311C27.7844 13.7937 27.8841 13.6197 27.9313 13.4286C27.9784 13.2376 27.9712 13.0371 27.9104 12.8499C27.8496 12.6628 27.7376 12.4963 27.5872 12.3694C27.4367 12.2426 27.2537 12.1603 27.0589 12.1321ZM21.7166 16.7623C21.5941 16.8817 21.5025 17.0291 21.4497 17.1917C21.3968 17.3544 21.3843 17.5274 21.4133 17.696L22.1039 21.7204L18.4894 19.8204C18.338 19.7408 18.1696 19.6993 17.9986 19.6993C17.8276 19.6993 17.6592 19.7408 17.5078 19.8204L13.8937 21.7204L14.5839 17.6959C14.6128 17.5274 14.6003 17.3543 14.5474 17.1917C14.4946 17.0291 14.403 16.8818 14.2806 16.7624L11.3564 13.9122L15.3972 13.3248C15.5664 13.3002 15.7271 13.2349 15.8654 13.1344C16.0037 13.0339 16.1156 12.9012 16.1912 12.7479L17.9987 9.08598L19.8063 12.748C19.882 12.9013 19.9938 13.0339 20.1322 13.1344C20.2705 13.2349 20.4312 13.3003 20.6004 13.3248L24.6408 13.9122L21.7166 16.7623Z" fill="#1C1C1E" stroke="white" stroke-width="0.7"/>
</g>
<defs>
<clipPath id="clip0_1523_44765">
<rect width="36" height="36" fill="white"/>
</clipPath>
</defs>
</svg>
