<svg width="16" height="17" viewBox="0 0 16 17" fill="none" xmlns="http://www.w3.org/2000/svg">
<path d="M9.82667 6.49998L9.596 12.5M6.404 12.5L6.17333 6.49998M12.8187 4.35998C13.0467 4.39465 13.2733 4.43131 13.5 4.47065M12.8187 4.35998L12.1067 13.6153C12.0776 13.9921 11.9074 14.3441 11.63 14.6008C11.3527 14.8575 10.9886 15.0001 10.6107 15H5.38933C5.0114 15.0001 4.64735 14.8575 4.36999 14.6008C4.09262 14.3441 3.92239 13.9921 3.89333 13.6153L3.18133 4.35998M12.8187 4.35998C12.0492 4.24366 11.2758 4.15538 10.5 4.09531M3.18133 4.35998C2.95333 4.39398 2.72667 4.43065 2.5 4.46998M3.18133 4.35998C3.95076 4.24366 4.72416 4.15538 5.5 4.09531M10.5 4.09531V3.48465C10.5 2.69798 9.89333 2.04198 9.10667 2.01731C8.36908 1.99374 7.63092 1.99374 6.89333 2.01731C6.10667 2.04198 5.5 2.69865 5.5 3.48465V4.09531M10.5 4.09531C8.83581 3.9667 7.16419 3.9667 5.5 4.09531" stroke="#8E8E93" stroke-linecap="round" stroke-linejoin="round"/>
</svg>
