<svg width="36" height="36" viewBox="0 0 36 36" fill="none" xmlns="http://www.w3.org/2000/svg">
<g clip-path="url(#clip0_1523_44774)">
<path d="M27.4092 14.0149H18.6185C17.9319 14.0149 17.3626 13.4456 17.3626 12.7591C17.3626 12.0726 17.9319 11.5033 18.6185 11.5033H27.4092C27.7422 11.5033 28.0616 11.6356 28.2971 11.8711C28.5327 12.1066 28.665 12.426 28.665 12.7591C28.665 13.0921 28.5327 13.4116 28.2971 13.6471C28.0616 13.8826 27.7422 14.0149 27.4092 14.0149ZM9.82775 15.2875C9.50961 15.2875 9.19148 15.1702 8.94031 14.9191L7.6845 13.6633C7.19892 13.1777 7.19892 12.374 7.6845 11.8884C8.17008 11.4028 8.9738 11.4028 9.45938 11.8884L9.82775 12.2568L12.7078 9.37676C13.1933 8.89118 13.9971 8.89118 14.4826 9.37676C14.9682 9.86234 14.9682 10.6661 14.4826 11.1516L10.7152 14.9191C10.4799 15.1547 10.1607 15.2872 9.82775 15.2875ZM27.4092 25.7358H18.6185C17.9319 25.7358 17.3626 25.1665 17.3626 24.48C17.3626 23.7935 17.9319 23.2242 18.6185 23.2242H27.4092C27.7422 23.2242 28.0616 23.3565 28.2971 23.592C28.5327 23.8275 28.665 24.147 28.665 24.48C28.665 24.8131 28.5327 25.1325 28.2971 25.368C28.0616 25.6035 27.7422 25.7358 27.4092 25.7358ZM9.82775 27.0084C9.50961 27.0084 9.19148 26.8912 8.94031 26.64L7.6845 25.3842C7.19892 24.8986 7.19892 24.0949 7.6845 23.6093C8.17008 23.1237 8.9738 23.1237 9.45938 23.6093L9.82775 23.9777L12.7078 21.0977C13.1933 20.6121 13.9971 20.6121 14.4826 21.0977C14.9682 21.5833 14.9682 22.387 14.4826 22.8726L10.7152 26.64C10.4799 26.8756 10.1607 27.0081 9.82775 27.0084Z" fill="#1C1C1E" stroke="white" stroke-width="0.7"/>
<path d="M23.0233 36H12.9767C3.88465 36 0 32.1153 0 23.0233V12.9767C0 3.88465 3.88465 0 12.9767 0H23.0233C32.1153 0 36 3.88465 36 12.9767V23.0233C36 32.1153 32.1153 36 23.0233 36ZM12.9767 2.51163C5.25767 2.51163 2.51163 5.25767 2.51163 12.9767V23.0233C2.51163 30.7423 5.25767 33.4884 12.9767 33.4884H23.0233C30.7423 33.4884 33.4884 30.7423 33.4884 23.0233V12.9767C33.4884 5.25767 30.7423 2.51163 23.0233 2.51163H12.9767Z" fill="#1C1C1E" stroke="white" stroke-width="0.7"/>
</g>
<defs>
<clipPath id="clip0_1523_44774">
<rect width="36" height="36" fill="white"/>
</clipPath>
</defs>
</svg>
