<svg width="36" height="36" viewBox="0 0 36 36" fill="none" xmlns="http://www.w3.org/2000/svg">
<g clip-path="url(#clip0_1523_44755)">
<path d="M8.24026 35.2271C7.78238 35.2271 7.32901 35.0831 6.93863 34.7985C6.60484 34.5576 6.34612 34.2271 6.19241 33.8452C6.03871 33.4633 5.99631 33.0457 6.07013 32.6408L7.73626 22.9151L0.667882 16.0391C0.370511 15.7505 0.160689 15.3838 0.0625688 14.9811C-0.0355513 14.5785 -0.017981 14.1563 0.113257 13.7633C0.239719 13.3729 0.473671 13.0261 0.788271 12.7626C1.10287 12.4992 1.48537 12.3297 1.89188 12.2738L11.6513 10.8506L16.0253 1.99801C16.3965 1.24426 17.1548 0.772888 18.0008 0.772888C18.8468 0.772888 19.6039 1.24314 19.9774 1.99914L24.3503 10.8506L34.1153 12.2749C34.9421 12.3908 35.6228 12.9611 35.8883 13.7633C36.0194 14.1556 36.0372 14.5769 35.9397 14.9788C35.8422 15.3808 35.6333 15.7471 35.337 16.0358L31.98 19.2904C31.7641 19.4884 31.4795 19.5944 31.1867 19.5859C30.8939 19.5773 30.616 19.4549 30.412 19.2447C30.2081 19.0344 30.0942 18.7529 30.0945 18.4599C30.0949 18.167 30.2095 17.8858 30.414 17.676L33.7665 14.4248L23.4413 12.9926C23.2609 12.9665 23.0895 12.897 22.9419 12.79C22.7944 12.683 22.675 12.5417 22.5941 12.3784L17.9591 2.99589L13.4063 12.3784C13.3255 12.5416 13.2063 12.6828 13.0589 12.7898C12.9116 12.8967 12.7405 12.9664 12.5603 12.9926L2.21026 14.5001L9.72863 21.7159C9.8597 21.8429 9.9579 21.9999 10.0147 22.1734C10.0716 22.3469 10.0854 22.5315 10.0549 22.7115L8.28638 33.03L17.4754 28.1093C17.6474 28.0185 17.84 27.9739 18.0345 27.9798C18.2289 27.9858 18.4184 28.042 18.5846 28.143C19.1145 28.467 19.3125 29.1758 18.9896 29.7068C18.8209 29.9824 18.5599 30.1658 18.2741 30.2321L9.26513 34.9718C8.94917 35.1397 8.59693 35.2277 8.23913 35.2283L8.24026 35.2271Z" fill="#1C1C1E" stroke="white" stroke-width="0.5"/>
<path d="M28.125 36C23.7825 36 20.25 32.4675 20.25 28.125C20.25 23.7825 23.7825 20.25 28.125 20.25C32.4675 20.25 36 23.7825 36 28.125C36 32.4675 32.4675 36 28.125 36ZM28.125 22.5C25.0234 22.5 22.5 25.0234 22.5 28.125C22.5 31.2266 25.0234 33.75 28.125 33.75C31.2266 33.75 33.75 31.2266 33.75 28.125C33.75 25.0234 31.2266 22.5 28.125 22.5Z" fill="#1C1C1E" stroke="white" stroke-width="0.5"/>
<path d="M28.125 31.5C27.8266 31.5 27.5405 31.3815 27.3295 31.1705C27.1185 30.9595 27 30.6734 27 30.375V25.875C27 25.5766 27.1185 25.2905 27.3295 25.0795C27.5405 24.8685 27.8266 24.75 28.125 24.75C28.4234 24.75 28.7095 24.8685 28.9205 25.0795C29.1315 25.2905 29.25 25.5766 29.25 25.875V30.375C29.25 30.6734 29.1315 30.9595 28.9205 31.1705C28.7095 31.3815 28.4234 31.5 28.125 31.5Z" fill="#1C1C1E" stroke="white" stroke-width="0.5"/>
<path d="M30.375 29.25H25.875C25.5766 29.25 25.2905 29.1315 25.0795 28.9205C24.8685 28.7095 24.75 28.4234 24.75 28.125C24.75 27.8266 24.8685 27.5405 25.0795 27.3295C25.2905 27.1185 25.5766 27 25.875 27H30.375C30.6734 27 30.9595 27.1185 31.1705 27.3295C31.3815 27.5405 31.5 27.8266 31.5 28.125C31.5 28.4234 31.3815 28.7095 31.1705 28.9205C30.9595 29.1315 30.6734 29.25 30.375 29.25Z" fill="#1C1C1E" stroke="white" stroke-width="0.5"/>
</g>
<defs>
<clipPath id="clip0_1523_44755">
<rect width="36" height="36" fill="white"/>
</clipPath>
</defs>
</svg>
