<svg width="36" height="36" viewBox="0 0 36 36" fill="none" xmlns="http://www.w3.org/2000/svg">
<g clip-path="url(#clip0_1523_44745)">
<path d="M17.9453 36C17.3628 36 16.8906 35.5278 16.8906 34.9453C16.8906 34.3628 17.3628 33.8906 17.9453 33.8906C26.7074 33.8906 33.8359 26.7621 33.8359 18C33.8359 9.23787 26.7074 2.10938 17.9453 2.10938C17.3628 2.10938 16.8906 1.63716 16.8906 1.05469C16.8906 0.472219 17.3628 0 17.9453 0C22.7533 0 27.2735 1.87235 30.6733 5.27203C34.073 8.67178 35.9453 13.192 35.9453 18C35.9453 22.808 34.073 27.3281 30.6733 30.728C27.2735 34.1276 22.7533 36 17.9453 36Z" fill="#1C1C1E"/>
<path d="M26.4162 27.5273C26.2777 27.5275 26.1405 27.5003 26.0125 27.4473C25.8845 27.3943 25.7683 27.3165 25.6705 27.2184L17.1978 18.7457C17 18.548 16.8889 18.2797 16.8889 18V7.40918C16.8889 6.82672 17.3611 6.3545 17.9436 6.3545C18.526 6.3545 18.9982 6.82672 18.9982 7.40918V17.5632L27.162 25.7269C27.5738 26.1388 27.5738 26.8066 27.162 27.2185C27.0641 27.3165 26.9479 27.3943 26.8199 27.4473C26.6919 27.5003 26.5547 27.5275 26.4162 27.5273ZM11.8158 3.25245C11.946 3.25245 12.0785 3.22819 12.2068 3.17693C12.2106 3.17546 12.5861 3.0259 12.9903 2.89955C13.4221 2.76462 13.9327 2.6202 13.9378 2.61879C14.4984 2.46045 14.8244 1.87763 14.666 1.3171C14.5077 0.756567 13.9253 0.430458 13.3644 0.588872C13.3425 0.595059 12.8213 0.742434 12.3611 0.886223C12.0447 0.986087 11.7319 1.09692 11.4233 1.21852C10.8826 1.43494 10.6199 2.04849 10.8361 2.58919C11.001 3.00157 11.3971 3.25245 11.8158 3.25245ZM7.55679 3.2952C7.53837 3.3087 7.10194 3.62918 6.72133 3.92499C6.4599 4.12931 6.20569 4.3427 5.95915 4.56476C5.52855 4.95682 5.4974 5.62353 5.88926 6.05426C5.98804 6.16305 6.10852 6.24994 6.24293 6.30933C6.37734 6.36872 6.52271 6.39929 6.66965 6.39908C6.93207 6.39937 7.18511 6.30151 7.37904 6.12472C7.38206 6.12197 7.68124 5.85043 8.01565 5.59062C8.37298 5.31296 8.80062 4.99887 8.8049 4.99578C9.27452 4.65111 9.37577 3.99108 9.03117 3.52147C8.68643 3.05185 8.0264 2.95053 7.55679 3.2952ZM4.52498 7.55958C4.03765 7.24043 3.38402 7.3767 3.0648 7.86397C3.05229 7.88302 2.75571 8.33604 2.50272 8.74653C2.32946 9.02948 2.16609 9.31839 2.01293 9.61271C1.74694 10.1308 1.95119 10.7662 2.46912 11.0323C2.6179 11.109 2.78287 11.1491 2.95026 11.1491C3.3329 11.1491 3.70219 10.9401 3.88922 10.5765C3.89097 10.5729 4.07618 10.2137 4.2983 9.85332C4.53581 9.46807 4.82641 9.02412 4.8293 9.01969C5.14851 8.53243 5.01218 7.87873 4.52498 7.55958ZM1.00915 16.893C1.05036 16.8978 1.09182 16.9003 1.13332 16.9003C1.66087 16.9003 2.11657 16.5052 2.1795 15.9684C2.17999 15.9644 2.22703 15.567 2.30958 15.1478C2.39705 14.704 2.51376 14.1865 2.51496 14.1813C2.64335 13.6131 2.28687 13.0485 1.71867 12.9201C1.1504 12.7916 0.585936 13.1482 0.457475 13.7164C0.452412 13.7386 0.333162 14.2669 0.239998 14.7401C0.176825 15.0657 0.124973 15.3934 0.0845374 15.7227C0.0166155 16.3012 0.430545 16.8252 1.00915 16.893ZM2.46623 21.6175C2.40179 21.3482 2.34659 21.0767 2.30072 20.8036C2.22717 20.3571 2.15524 19.8314 2.15454 19.8262C2.07572 19.2491 1.54493 18.8448 0.966819 18.9239C0.389694 19.0027 -0.0142517 19.5344 0.0644983 20.1116C0.067592 20.1341 0.140998 20.6707 0.219326 21.1463C0.274184 21.4736 0.340412 21.7989 0.417889 22.1215C0.536225 22.6025 0.9671 22.9245 1.44122 22.9245C1.52468 22.9245 1.6094 22.9145 1.69406 22.8937C2.25972 22.7545 2.60545 22.1832 2.46623 21.6175ZM4.27326 26.1044C4.04805 25.7119 3.79655 25.2447 3.79401 25.24C3.51804 24.727 2.87826 24.535 2.36562 24.8108C1.85262 25.0867 1.66045 25.7263 1.93643 26.2392C1.94719 26.2593 2.2039 26.7362 2.44387 27.1543C2.60985 27.4415 2.78577 27.723 2.97129 27.998C3.1754 28.2971 3.5063 28.4581 3.84309 28.4581C4.04777 28.4581 4.2547 28.3986 4.43646 28.2746C4.91761 27.9464 5.04157 27.2903 4.71356 26.8091C4.71124 26.8057 4.48399 26.4716 4.27326 26.1044ZM8.6363 30.8845C8.41096 30.7233 8.19111 30.5546 7.97712 30.3786C7.62872 30.0899 7.22955 29.7404 7.22562 29.7368C6.78764 29.353 6.12115 29.3968 5.73731 29.835C5.3534 30.2731 5.39735 30.9394 5.8354 31.3233C5.85255 31.3384 6.25994 31.6951 6.63119 32.0028C7.02269 32.3272 7.40463 32.597 7.42073 32.6083C7.59812 32.7338 7.81006 32.8011 8.02732 32.801C8.35856 32.801 8.68467 32.6454 8.89012 32.3542C9.22573 31.8783 9.1121 31.2203 8.6363 30.8845ZM13.7377 33.3279C13.4702 33.2561 13.2053 33.175 12.9434 33.0851C12.5159 32.9366 12.0197 32.749 12.0147 32.7471C11.4701 32.5409 10.8613 32.8154 10.655 33.3602C10.4488 33.905 10.7233 34.5137 11.2681 34.7199C11.2895 34.728 11.796 34.9195 12.2515 35.0776C12.7317 35.2444 13.1839 35.3633 13.2029 35.3684C13.2925 35.3919 13.3825 35.4031 13.4709 35.4031C13.9388 35.4031 14.3663 35.0894 14.4904 34.6155C14.6382 34.052 14.3012 33.4756 13.7377 33.3279Z" fill="#1C1C1E"/>
</g>
<defs>
<clipPath id="clip0_1523_44745">
<rect width="36" height="36" fill="white"/>
</clipPath>
</defs>
</svg>
