<svg width="18" height="18" viewBox="0 0 18 18" fill="none" xmlns="http://www.w3.org/2000/svg">
<g id="Icon">
<path id="Vector" fill-rule="evenodd" clip-rule="evenodd" d="M9.72751 2.97749C9.62217 3.08296 9.563 3.22593 9.563 3.37499C9.563 3.52406 9.62217 3.66702 9.72751 3.77249L14.3925 8.43749H2.25001C2.10082 8.43749 1.95775 8.49676 1.85226 8.60225C1.74677 8.70774 1.68751 8.85081 1.68751 8.99999C1.68751 9.14918 1.74677 9.29225 1.85226 9.39774C1.95775 9.50323 2.10082 9.56249 2.25001 9.56249H14.3925L9.72751 14.2275C9.67224 14.279 9.62791 14.3411 9.59717 14.4101C9.56643 14.4791 9.5499 14.5536 9.54856 14.6291C9.54723 14.7046 9.56112 14.7796 9.58941 14.8497C9.61771 14.9197 9.65981 14.9834 9.71323 15.0368C9.76664 15.0902 9.83027 15.1323 9.90031 15.1606C9.97035 15.1889 10.0454 15.2028 10.1209 15.2014C10.1964 15.2001 10.2709 15.1836 10.3399 15.1528C10.4089 15.1221 10.471 15.0778 10.5225 15.0225L16.1475 9.39749C16.2528 9.29202 16.312 9.14906 16.312 8.99999C16.312 8.85093 16.2528 8.70796 16.1475 8.60249L10.5225 2.97749C10.417 2.87216 10.2741 2.81299 10.125 2.81299C9.97594 2.81299 9.83298 2.87216 9.72751 2.97749Z" fill="white"/>
</g>
</svg>
