<svg width="18" height="18" viewBox="0 0 18 18" fill="none" xmlns="http://www.w3.org/2000/svg">
<g id="Icon">
<path id="Vector" fill-rule="evenodd" clip-rule="evenodd" d="M8.27249 2.97749C8.37783 3.08296 8.437 3.22593 8.437 3.37499C8.437 3.52406 8.37783 3.66702 8.27249 3.77249L3.60749 8.43749H15.75C15.8992 8.43749 16.0423 8.49676 16.1477 8.60225C16.2532 8.70774 16.3125 8.85081 16.3125 8.99999C16.3125 9.14918 16.2532 9.29225 16.1477 9.39774C16.0423 9.50323 15.8992 9.56249 15.75 9.56249H3.60749L8.27249 14.2275C8.32776 14.279 8.37209 14.3411 8.40283 14.4101C8.43357 14.4791 8.4501 14.5536 8.45144 14.6291C8.45277 14.7046 8.43888 14.7796 8.41059 14.8497C8.38229 14.9197 8.34019 14.9834 8.28677 15.0368C8.23336 15.0902 8.16973 15.1323 8.09969 15.1606C8.02965 15.1889 7.95463 15.2028 7.8791 15.2014C7.80357 15.2001 7.72909 15.1836 7.66009 15.1528C7.59109 15.1221 7.52899 15.0778 7.47749 15.0225L1.85249 9.39749C1.74716 9.29202 1.68799 9.14906 1.68799 8.99999C1.68799 8.85093 1.74716 8.70796 1.85249 8.60249L7.47749 2.97749C7.58296 2.87216 7.72593 2.81299 7.87499 2.81299C8.02406 2.81299 8.16702 2.87216 8.27249 2.97749Z" fill="white"/>
</g>
</svg>
