<svg width="25" height="24" viewBox="0 0 25 24" fill="none" xmlns="http://www.w3.org/2000/svg">
<g id="Icon">
<path id="Vector" d="M6.25 13.5V3.75M6.25 13.5C6.64782 13.5 7.02936 13.658 7.31066 13.9393C7.59196 14.2206 7.75 14.6022 7.75 15C7.75 15.3978 7.59196 15.7794 7.31066 16.0607C7.02936 16.342 6.64782 16.5 6.25 16.5M6.25 13.5C5.85218 13.5 5.47064 13.658 5.18934 13.9393C4.90804 14.2206 4.75 14.6022 4.75 15C4.75 15.3978 4.90804 15.7794 5.18934 16.0607C5.47064 16.342 5.85218 16.5 6.25 16.5M6.25 20.25V16.5M18.25 13.5V3.75M18.25 13.5C18.6478 13.5 19.0294 13.658 19.3107 13.9393C19.592 14.2206 19.75 14.6022 19.75 15C19.75 15.3978 19.592 15.7794 19.3107 16.0607C19.0294 16.342 18.6478 16.5 18.25 16.5M18.25 13.5C17.8522 13.5 17.4706 13.658 17.1893 13.9393C16.908 14.2206 16.75 14.6022 16.75 15C16.75 15.3978 16.908 15.7794 17.1893 16.0607C17.4706 16.342 17.8522 16.5 18.25 16.5M18.25 20.25V16.5M12.25 7.5V3.75M12.25 7.5C12.6478 7.5 13.0294 7.65804 13.3107 7.93934C13.592 8.22064 13.75 8.60218 13.75 9C13.75 9.39782 13.592 9.77936 13.3107 10.0607C13.0294 10.342 12.6478 10.5 12.25 10.5M12.25 7.5C11.8522 7.5 11.4706 7.65804 11.1893 7.93934C10.908 8.22064 10.75 8.60218 10.75 9C10.75 9.39782 10.908 9.77936 11.1893 10.0607C11.4706 10.342 11.8522 10.5 12.25 10.5M12.25 20.25V10.5" stroke="#1C1C1E" stroke-width="1.5" stroke-linecap="round" stroke-linejoin="round"/>
</g>
</svg>
