<svg xmlns="http://www.w3.org/2000/svg" width="70" height="70" viewBox="0 0 70 70" fill="none"><path fill-rule="evenodd" clip-rule="evenodd" d="M25.0867 8.19631H20.3992L25.0867 3.50781V8.19631ZM61.7439 24.6123V31.3351H8.25391V24.6123H61.7439ZM60.9725 32.4287L38.7276 54.6863C38.6254 54.7886 38.5646 54.9269 38.5646 55.0718V67.2659H31.7035V55.3465C31.7035 55.2013 31.6499 55.0627 31.5468 54.9597L9.03184 32.4287H60.9725Z" fill="#FFF5E0"></path><path fill-rule="evenodd" clip-rule="evenodd" d="M13.5539 61.5958H12.0872C11.5596 61.5958 11.1286 61.1667 11.1286 60.6391V45.5619H6.83115V60.6391C6.83115 61.1667 6.4065 61.5958 5.87904 61.5958H4.41218L8.97982 66.4207L13.5539 61.5958ZM16.6548 60.2602C16.8092 60.6114 16.732 61.0192 16.4682 61.2966L9.67463 68.4704C9.49457 68.6614 9.24355 68.7695 8.97982 68.7695C8.71609 68.7695 8.47164 68.6614 8.28502 68.4704L1.49146 61.2966C1.36249 61.1609 1.27655 60.9901 1.24449 60.8057C1.21242 60.6212 1.23566 60.4314 1.31127 60.2602C1.4592 59.9089 1.8066 59.6818 2.18613 59.6818H4.92037V44.6046C4.92037 44.0758 5.35144 43.648 5.8789 43.648H12.087C12.6145 43.648 13.0456 44.0758 13.0456 44.6046V59.6818H15.7732C16.1593 59.6818 16.5067 59.9089 16.6548 60.2602ZM65.5866 61.5958H64.1263C64.0004 61.5962 63.8758 61.5718 63.7594 61.5239C63.643 61.476 63.5372 61.4056 63.4482 61.3167C63.3591 61.2278 63.2885 61.1222 63.2403 61.0059C63.1922 60.8896 63.1676 60.765 63.1678 60.6391V45.5619H58.8703V60.6391C58.8703 61.1667 58.4392 61.5958 57.9117 61.5958H56.4513L61.0189 66.4207L65.5866 61.5958ZM68.5074 61.2966L61.7139 68.4704C61.5337 68.6614 61.2828 68.7695 61.0191 68.7695C60.7553 68.7695 60.5045 68.6614 60.3243 68.4704L53.5307 61.2966C53.267 61.0194 53.1962 60.6115 53.3441 60.2602C53.4985 59.9089 53.8394 59.6818 54.2255 59.6818H56.9532V44.6046C56.9532 44.0758 57.3843 43.648 57.9117 43.648H64.1263C64.6537 43.648 65.0784 44.0758 65.0784 44.6046V59.6818H67.8125C68.192 59.6818 68.5394 59.9089 68.6939 60.2602C68.8419 60.6114 68.7712 61.0192 68.5074 61.2966ZM59.9832 32.8388L38.4381 54.3962C38.3488 54.4846 38.2778 54.5898 38.2293 54.7057C38.1807 54.8216 38.1555 54.946 38.1551 55.0717V66.8556H32.1141V55.3463C32.1141 55.0922 32.0176 54.8491 31.8376 54.6696L10.022 32.8388H59.9832ZM8.66455 25.0223V30.9248H61.3342V25.0223H8.66455ZM20.0387 23.1083H49.9666V3.14439H26.5943V8.7433C26.5943 9.27213 26.1632 9.70061 25.6357 9.70061H20.0387V23.1083ZM21.3896 7.786L24.677 4.49791V7.786H21.3896ZM62.9683 32.5582L40.0721 55.4679V67.8128C40.0721 68.3416 39.6411 68.7694 39.1136 68.7694H31.162C30.6346 68.7694 30.2035 68.3416 30.2035 67.8128V55.7432L7.03049 32.5582C6.85029 32.3794 6.7539 32.1362 6.7539 31.8814V24.0656C6.7539 23.8109 6.85043 23.5677 7.03049 23.3889C7.12003 23.2995 7.22639 23.2286 7.34343 23.1805C7.46047 23.1323 7.58588 23.1078 7.71244 23.1083H18.1215V8.7433C18.1215 8.49051 18.2245 8.24728 18.4045 8.06654L24.9601 1.51102C25.1395 1.33206 25.3823 1.23123 25.6357 1.23047H50.9187C51.4463 1.23047 51.8772 1.65826 51.8772 2.18777V23.1083H62.2928C62.8202 23.1083 63.2449 23.5361 63.2449 24.0656V31.8814C63.2449 32.1362 63.1485 32.3794 62.9683 32.5582ZM45.3087 18.8102C45.8362 18.8102 46.2673 19.238 46.2673 19.7668C46.2673 20.2949 45.8362 20.7241 45.3087 20.7241H24.69C24.1624 20.7241 23.7315 20.2949 23.7315 19.7668C23.7315 19.238 24.1626 18.8102 24.69 18.8102H45.3087ZM36.2314 10.3961C35.704 10.3961 35.2793 9.9683 35.2793 9.43947C35.2793 8.91187 35.704 8.48217 36.2314 8.48217H45.3089C45.8363 8.48217 46.2674 8.91187 46.2674 9.43947C46.2674 9.9683 45.8363 10.3961 45.3089 10.3961H36.2314ZM46.2674 14.6028C46.2674 15.1309 45.8363 15.5601 45.3089 15.5601H24.69C24.1624 15.5601 23.7315 15.1311 23.7315 14.6028C23.7315 14.074 24.1626 13.6462 24.69 13.6462H45.3089C45.8363 13.6462 46.2674 14.074 46.2674 14.6028Z" fill="#FFA920"></path></svg>