<svg width="41" height="40" viewBox="0 0 41 40" fill="none" xmlns="http://www.w3.org/2000/svg">
<path d="M17.375 9.375H19.875C20.0408 9.375 20.1997 9.30915 20.3169 9.19194C20.4342 9.07473 20.5 8.91576 20.5 8.75V5C20.5 4.83424 20.4342 4.67527 20.3169 4.55806C20.1997 4.44085 20.0408 4.375 19.875 4.375H17.375C17.2092 4.375 17.0503 4.44085 16.9331 4.55806C16.8158 4.67527 16.75 4.83424 16.75 5V8.75C16.75 8.91576 16.8158 9.07473 16.9331 9.19194C17.0503 9.30915 17.2092 9.375 17.375 9.375ZM18 5.625H19.25V8.125H18V5.625ZM22.375 9.375H24.875C25.0408 9.375 25.1997 9.30915 25.3169 9.19194C25.4342 9.07473 25.5 8.91576 25.5 8.75V5C25.5 4.83424 25.4342 4.67527 25.3169 4.55806C25.1997 4.44085 25.0408 4.375 24.875 4.375H22.375C22.2092 4.375 22.0503 4.44085 21.9331 4.55806C21.8158 4.67527 21.75 4.83424 21.75 5V8.75C21.75 8.91576 21.8158 9.07473 21.9331 9.19194C22.0503 9.30915 22.2092 9.375 22.375 9.375ZM23 5.625H24.25V8.125H23V5.625ZM27.375 9.375H29.875C30.0408 9.375 30.1997 9.30915 30.3169 9.19194C30.4342 9.07473 30.5 8.91576 30.5 8.75V5C30.5 4.83424 30.4342 4.67527 30.3169 4.55806C30.1997 4.44085 30.0408 4.375 29.875 4.375H27.375C27.2092 4.375 27.0503 4.44085 26.9331 4.55806C26.8158 4.67527 26.75 4.83424 26.75 5V8.75C26.75 8.91576 26.8158 9.07473 26.9331 9.19194C27.0503 9.30915 27.2092 9.375 27.375 9.375ZM28 5.625H29.25V8.125H28V5.625ZM17.375 15.625H19.875C20.0408 15.625 20.1997 15.5592 20.3169 15.4419C20.4342 15.3247 20.5 15.1658 20.5 15V11.25C20.5 11.0842 20.4342 10.9253 20.3169 10.8081C20.1997 10.6908 20.0408 10.625 19.875 10.625H17.375C17.2092 10.625 17.0503 10.6908 16.9331 10.8081C16.8158 10.9253 16.75 11.0842 16.75 11.25V15C16.75 15.1658 16.8158 15.3247 16.9331 15.4419C17.0503 15.5592 17.2092 15.625 17.375 15.625ZM18 11.875H19.25V14.375H18V11.875ZM22.375 15.625H24.875C25.0408 15.625 25.1997 15.5592 25.3169 15.4419C25.4342 15.3247 25.5 15.1658 25.5 15V11.25C25.5 11.0842 25.4342 10.9253 25.3169 10.8081C25.1997 10.6908 25.0408 10.625 24.875 10.625H22.375C22.2092 10.625 22.0503 10.6908 21.9331 10.8081C21.8158 10.9253 21.75 11.0842 21.75 11.25V15C21.75 15.1658 21.8158 15.3247 21.9331 15.4419C22.0503 15.5592 22.2092 15.625 22.375 15.625ZM23 11.875H24.25V14.375H23V11.875ZM27.375 15.625H29.875C30.0408 15.625 30.1997 15.5592 30.3169 15.4419C30.4342 15.3247 30.5 15.1658 30.5 15V11.25C30.5 11.0842 30.4342 10.9253 30.3169 10.8081C30.1997 10.6908 30.0408 10.625 29.875 10.625H27.375C27.2092 10.625 27.0503 10.6908 26.9331 10.8081C26.8158 10.9253 26.75 11.0842 26.75 11.25V15C26.75 15.1658 26.8158 15.3247 26.9331 15.4419C27.0503 15.5592 27.2092 15.625 27.375 15.625ZM28 11.875H29.25V14.375H28V11.875ZM12.375 9.375H14.875C15.0408 9.375 15.1997 9.30915 15.3169 9.19194C15.4342 9.07473 15.5 8.91576 15.5 8.75V5C15.5 4.83424 15.4342 4.67527 15.3169 4.55806C15.1997 4.44085 15.0408 4.375 14.875 4.375H12.375C12.2092 4.375 12.0503 4.44085 11.9331 4.55806C11.8158 4.67527 11.75 4.83424 11.75 5V8.75C11.75 8.91576 11.8158 9.07473 11.9331 9.19194C12.0503 9.30915 12.2092 9.375 12.375 9.375ZM13 5.625H14.25V8.125H13V5.625ZM12.375 15.625H14.875C15.0408 15.625 15.1997 15.5592 15.3169 15.4419C15.4342 15.3247 15.5 15.1658 15.5 15V11.25C15.5 11.0842 15.4342 10.9253 15.3169 10.8081C15.1997 10.6908 15.0408 10.625 14.875 10.625H12.375C12.2092 10.625 12.0503 10.6908 11.9331 10.8081C11.8158 10.9253 11.75 11.0842 11.75 11.25V15C11.75 15.1658 11.8158 15.3247 11.9331 15.4419C12.0503 15.5592 12.2092 15.625 12.375 15.625ZM13 11.875H14.25V14.375H13V11.875ZM17.375 21.875H19.875C20.0408 21.875 20.1997 21.8092 20.3169 21.6919C20.4342 21.5747 20.5 21.4158 20.5 21.25V17.5C20.5 17.3342 20.4342 17.1753 20.3169 17.0581C20.1997 16.9408 20.0408 16.875 19.875 16.875H17.375C17.2092 16.875 17.0503 16.9408 16.9331 17.0581C16.8158 17.1753 16.75 17.3342 16.75 17.5V21.25C16.75 21.4158 16.8158 21.5747 16.9331 21.6919C17.0503 21.8092 17.2092 21.875 17.375 21.875ZM18 18.125H19.25V20.625H18V18.125ZM12.375 21.875H14.875C15.0408 21.875 15.1997 21.8092 15.3169 21.6919C15.4342 21.5747 15.5 21.4158 15.5 21.25V17.5C15.5 17.3342 15.4342 17.1753 15.3169 17.0581C15.1997 16.9408 15.0408 16.875 14.875 16.875H12.375C12.2092 16.875 12.0503 16.9408 11.9331 17.0581C11.8158 17.1753 11.75 17.3342 11.75 17.5V21.25C11.75 21.4158 11.8158 21.5747 11.9331 21.6919C12.0503 21.8092 12.2092 21.875 12.375 21.875ZM13 18.125H14.25V20.625H13V18.125ZM22.375 21.875H24.875C25.0408 21.875 25.1997 21.8092 25.3169 21.6919C25.4342 21.5747 25.5 21.4158 25.5 21.25V17.5C25.5 17.3342 25.4342 17.1753 25.3169 17.0581C25.1997 16.9408 25.0408 16.875 24.875 16.875H22.375C22.2092 16.875 22.0503 16.9408 21.9331 17.0581C21.8158 17.1753 21.75 17.3342 21.75 17.5V21.25C21.75 21.4158 21.8158 21.5747 21.9331 21.6919C22.0503 21.8092 22.2092 21.875 22.375 21.875ZM23 18.125H24.25V20.625H23V18.125ZM27.375 21.875H29.875C30.0408 21.875 30.1997 21.8092 30.3169 21.6919C30.4342 21.5747 30.5 21.4158 30.5 21.25V17.5C30.5 17.3342 30.4342 17.1753 30.3169 17.0581C30.1997 16.9408 30.0408 16.875 29.875 16.875H27.375C27.2092 16.875 27.0503 16.9408 26.9331 17.0581C26.8158 17.1753 26.75 17.3342 26.75 17.5V21.25C26.75 21.4158 26.8158 21.5747 26.9331 21.6919C27.0503 21.8092 27.2092 21.875 27.375 21.875ZM28 18.125H29.25V20.625H28V18.125ZM17.375 28.125H19.875C20.0408 28.125 20.1997 28.0592 20.3169 27.9419C20.4342 27.8247 20.5 27.6658 20.5 27.5V23.75C20.5 23.5842 20.4342 23.4253 20.3169 23.3081C20.1997 23.1908 20.0408 23.125 19.875 23.125H17.375C17.2092 23.125 17.0503 23.1908 16.9331 23.3081C16.8158 23.4253 16.75 23.5842 16.75 23.75V27.5C16.75 27.6658 16.8158 27.8247 16.9331 27.9419C17.0503 28.0592 17.2092 28.125 17.375 28.125ZM18 24.375H19.25V26.875H18V24.375ZM12.375 28.125H14.875C15.0408 28.125 15.1997 28.0592 15.3169 27.9419C15.4342 27.8247 15.5 27.6658 15.5 27.5V23.75C15.5 23.5842 15.4342 23.4253 15.3169 23.3081C15.1997 23.1908 15.0408 23.125 14.875 23.125H12.375C12.2092 23.125 12.0503 23.1908 11.9331 23.3081C11.8158 23.4253 11.75 23.5842 11.75 23.75V27.5C11.75 27.6658 11.8158 27.8247 11.9331 27.9419C12.0503 28.0592 12.2092 28.125 12.375 28.125ZM13 24.375H14.25V26.875H13V24.375ZM22.375 28.125H24.875C25.0408 28.125 25.1997 28.0592 25.3169 27.9419C25.4342 27.8247 25.5 27.6658 25.5 27.5V23.75C25.5 23.5842 25.4342 23.4253 25.3169 23.3081C25.1997 23.1908 25.0408 23.125 24.875 23.125H22.375C22.2092 23.125 22.0503 23.1908 21.9331 23.3081C21.8158 23.4253 21.75 23.5842 21.75 23.75V27.5C21.75 27.6658 21.8158 27.8247 21.9331 27.9419C22.0503 28.0592 22.2092 28.125 22.375 28.125ZM23 24.375H24.25V26.875H23V24.375ZM27.375 28.125H29.875C30.0408 28.125 30.1997 28.0592 30.3169 27.9419C30.4342 27.8247 30.5 27.6658 30.5 27.5V23.75C30.5 23.5842 30.4342 23.4253 30.3169 23.3081C30.1997 23.1908 30.0408 23.125 29.875 23.125H27.375C27.2092 23.125 27.0503 23.1908 26.9331 23.3081C26.8158 23.4253 26.75 23.5842 26.75 23.75V27.5C26.75 27.6658 26.8158 27.8247 26.9331 27.9419C27.0503 28.0592 27.2092 28.125 27.375 28.125ZM28 24.375H29.25V26.875H28V24.375Z" fill="#3A3A3C"/>
<path d="M38.6246 24.375H32.9996V2.5C32.9996 2.33424 32.9337 2.17527 32.8165 2.05806C32.6993 1.94085 32.5404 1.875 32.3746 1.875H9.8746C9.70884 1.875 9.54987 1.94085 9.43266 2.05806C9.31545 2.17527 9.2496 2.33424 9.2496 2.5V24.9275C8.72408 24.5895 8.11716 24.3993 7.4927 24.3771C6.86824 24.3548 6.24933 24.5013 5.70109 24.8011C5.15286 25.1009 4.69556 25.5429 4.37733 26.0807C4.0591 26.6184 3.89169 27.232 3.89272 27.8569C3.89338 28.204 3.94713 28.5491 4.0521 28.88C3.28121 29.1563 2.6327 29.696 2.221 30.4039C1.8093 31.1118 1.66088 31.9424 1.80193 32.7491C1.94298 33.5557 2.36443 34.2866 2.99191 34.8128C3.61939 35.339 4.41257 35.6267 5.23147 35.625C5.75901 35.6218 6.27862 35.4964 6.7496 35.2588V37.5C6.7496 37.6658 6.81545 37.8247 6.93266 37.9419C7.04987 38.0592 7.20884 38.125 7.3746 38.125C7.54036 38.125 7.69933 38.0592 7.81654 37.9419C7.93375 37.8247 7.9996 37.6658 7.9996 37.5V35.2588C8.39057 35.4518 8.81486 35.5683 9.2496 35.6019V37.5C9.2496 37.6658 9.31545 37.8247 9.43266 37.9419C9.54987 38.0592 9.70884 38.125 9.8746 38.125H37.3746C37.5404 38.125 37.6993 38.0592 37.8165 37.9419C37.9337 37.8247 37.9996 37.6658 37.9996 37.5V28.125H38.6246C38.7904 28.125 38.9493 28.0592 39.0665 27.9419C39.1837 27.8247 39.2496 27.6658 39.2496 27.5V25C39.2496 24.8342 39.1837 24.6753 39.0665 24.5581C38.9493 24.4408 38.7904 24.375 38.6246 24.375ZM7.3746 31.875C7.20884 31.875 7.04987 31.9408 6.93266 32.0581C6.81545 32.1753 6.7496 32.3342 6.7496 32.5V33.75C6.34437 34.1483 5.79964 34.3725 5.23147 34.375C4.66014 34.3772 4.10987 34.1595 3.69471 33.767C3.27955 33.3745 3.03134 32.8373 3.00152 32.2667C2.97171 31.6962 3.16258 31.136 3.53457 30.7024C3.90656 30.2687 4.43115 29.9948 4.9996 29.9375C5.10384 29.9263 5.20359 29.8891 5.28968 29.8293C5.37577 29.7695 5.44542 29.6889 5.49223 29.5951C5.53904 29.5013 5.5615 29.3972 5.55755 29.2925C5.55359 29.1877 5.52335 29.0856 5.4696 28.9956C5.25939 28.6529 5.1474 28.2589 5.14585 27.8569C5.14585 27.2649 5.38099 26.6973 5.79955 26.2787C6.21811 25.8601 6.78579 25.625 7.37772 25.625C7.96965 25.625 8.53734 25.8601 8.9559 26.2787C9.37446 26.6973 9.6096 27.2649 9.6096 27.8569C9.60805 28.2589 9.49605 28.6529 9.28585 28.9956C9.2321 29.0856 9.20186 29.1877 9.1979 29.2925C9.19395 29.3972 9.21641 29.5013 9.26322 29.5951C9.31003 29.6889 9.37968 29.7695 9.46577 29.8293C9.55185 29.8891 9.65161 29.9263 9.75585 29.9375C10.3246 29.9948 10.8494 30.2689 11.2215 30.7029C11.5935 31.1369 11.7842 31.6975 11.754 32.2683C11.7238 32.8391 11.4749 33.3764 11.0591 33.7687C10.6433 34.1609 10.0925 34.3781 9.52085 34.375C8.9516 34.3733 8.4056 34.149 7.9996 33.75V32.5C7.9996 32.3342 7.93375 32.1753 7.81654 32.0581C7.69933 31.9408 7.54036 31.875 7.3746 31.875ZM24.2496 36.875H17.9996V30.625H24.2496V36.875ZM31.7496 36.875H25.4996V30C25.4996 29.8342 25.4337 29.6753 25.3165 29.5581C25.1993 29.4408 25.0404 29.375 24.8746 29.375H17.3746C17.2088 29.375 17.0499 29.4408 16.9327 29.5581C16.8154 29.6753 16.7496 29.8342 16.7496 30V36.875H10.4996V35.4819C11.2037 35.2765 11.8247 34.8534 12.2735 34.2733C12.7222 33.6932 12.9758 32.9858 12.9977 32.2527C13.0196 31.5196 12.8088 30.7984 12.3955 30.1925C11.9822 29.5866 11.3877 29.1271 10.6971 28.88C10.8021 28.5491 10.8558 28.204 10.8565 27.8569C10.8559 27.3277 10.7338 26.8057 10.4996 26.3313V3.125H31.7496V36.875ZM36.7496 36.875H32.9996V28.125H36.7496V36.875ZM37.9996 26.875H32.9996V25.625H37.9996V26.875Z" fill="#3A3A3C"/>
</svg>
