<svg width="18" height="18" viewBox="0 0 18 18" fill="none" xmlns="http://www.w3.org/2000/svg">
<path d="M17.2978 7.86381C17.2972 7.86343 17.2968 7.86288 17.2964 7.86247L10.1714 0.737727C9.86764 0.433833 9.46385 0.266602 9.03438 0.266602C8.60488 0.266602 8.20109 0.433833 7.89727 0.737693L0.775896 7.85886C0.773508 7.86125 0.770983 7.86377 0.768732 7.86619C0.145044 8.49343 0.146136 9.51114 0.771802 10.1368C1.05762 10.4228 1.43499 10.5883 1.83868 10.6058C1.85519 10.6074 1.87173 10.6081 1.88838 10.6081H2.17222V15.8515C2.17222 16.8892 3.01656 17.7334 4.05426 17.7334H6.84182C7.12446 17.7334 7.35354 17.5041 7.35354 17.2216V13.1108C7.35354 12.6374 7.7388 12.2522 8.21228 12.2522H9.85645C10.33 12.2522 10.715 12.6374 10.715 13.1108V17.2217C10.715 17.5042 10.9441 17.7334 11.2268 17.7334H14.0143C15.0522 17.7334 15.8964 16.8892 15.8964 15.8515V10.6082H16.1597C16.5891 10.6082 16.9929 10.4409 17.2968 10.1369C17.9232 9.51036 17.9234 8.49077 17.2977 7.86377L17.2978 7.86381ZM16.5731 9.41337C16.5189 9.46785 16.4545 9.51104 16.3836 9.54046C16.3126 9.56988 16.2365 9.58494 16.1597 9.58476H15.3846C15.102 9.58476 14.8729 9.81381 14.8729 10.0965V15.8515C14.8729 16.3248 14.4878 16.71 14.0143 16.71H11.7385V13.1108C11.7385 12.0731 10.8943 11.2288 9.85641 11.2288H8.21232C7.17447 11.2288 6.33013 12.0731 6.33013 13.1108V16.71H4.05433C3.58095 16.71 3.1957 16.3248 3.1957 15.8515V10.0965C3.1957 9.81378 2.96661 9.58473 2.68397 9.58473H1.92222C1.91424 9.58416 1.90624 9.5838 1.89824 9.58364C1.74578 9.58098 1.60281 9.52049 1.49568 9.4132C1.2678 9.18531 1.2678 8.81448 1.49568 8.58646C1.49579 8.58646 1.49579 8.58632 1.49592 8.58619L1.49633 8.58578L8.62111 1.4613C8.67523 1.40682 8.73963 1.36363 8.81057 1.33423C8.88152 1.30483 8.95759 1.28982 9.03438 1.29005C9.19042 1.29005 9.33715 1.35081 9.44761 1.4613L16.5708 8.58434L16.5741 8.58755C16.8008 8.81585 16.8004 9.18593 16.5731 9.41337Z" fill="#FFA920" stroke="#FFA920" stroke-width="0.208001"/>
</svg>
