<svg width="14" height="18" viewBox="0 0 14 18" fill="none" xmlns="http://www.w3.org/2000/svg">
<path d="M7.00018 0.227783C3.37177 0.227783 0.421021 3.17854 0.421021 6.80694C0.421021 11.3674 6.35981 17.3588 6.61201 17.6121C6.71518 17.7147 6.85473 17.7722 7.00018 17.7722C7.14564 17.7722 7.28518 17.7147 7.38835 17.6121C7.64055 17.3588 13.5793 11.3674 13.5793 6.80694C13.5793 3.17854 10.6286 0.227783 7.00018 0.227783ZM7.00018 16.4312C5.69093 15.0298 1.51755 10.2906 1.51755 6.80694C1.51755 3.78382 3.97706 1.32431 7.00018 1.32431C10.0233 1.32431 12.4828 3.78382 12.4828 6.80694C12.4828 10.2873 8.30944 15.0298 7.00018 16.4312Z" fill="#FFA920" stroke="#FFA920" stroke-width="0.209169"/>
<path d="M7.00003 3.51724C5.18637 3.51724 3.71045 4.99317 3.71045 6.80682C3.71045 8.62048 5.18637 10.0964 7.00003 10.0964C8.81369 10.0964 10.2896 8.62048 10.2896 6.80682C10.2896 4.99317 8.81369 3.51724 7.00003 3.51724ZM7.00003 8.99988C5.79056 8.99988 4.80698 8.01629 4.80698 6.80682C4.80698 5.59735 5.79056 4.61377 7.00003 4.61377C8.2095 4.61377 9.19308 5.59735 9.19308 6.80682C9.19308 8.01629 8.2095 8.99988 7.00003 8.99988Z" fill="#FFA920" stroke="#FFA920" stroke-width="0.209169"/>
</svg>
