<svg width="17" height="17" viewBox="0 0 17 17" fill="none" xmlns="http://www.w3.org/2000/svg">
<g clip-path="url(#clip0_4517_13909)">
<path d="M16.5 7.625C16.5 7.23078 16.3392 6.85947 16.0471 6.5795C15.7624 6.30659 15.3905 6.15625 15 6.15625H3.46875V3.55687C3.46875 3.0915 3.633 2.65594 3.93116 2.33053C4.21894 2.01662 4.59853 1.84375 5 1.84375C5.73531 1.84375 6.28959 2.26266 6.46909 2.90625H6.25C5.99113 2.90625 5.78125 3.11613 5.78125 3.375C5.78125 3.63387 5.99113 3.84375 6.25 3.84375H7.75C8.00887 3.84375 8.21875 3.63387 8.21875 3.375C8.21875 3.11613 8.00887 2.90625 7.75 2.90625H7.428C7.33856 2.394 7.10231 1.93581 6.73981 1.58588C6.28581 1.14763 5.66794 0.90625 5 0.90625C4.33262 0.90625 3.70762 1.18706 3.24003 1.69712C2.78297 2.19597 2.53125 2.85644 2.53125 3.55687V6.15625H2C1.6095 6.15625 1.23763 6.30659 0.952875 6.5795C0.660812 6.85947 0.5 7.23078 0.5 7.625C0.5 8.01922 0.660812 8.39053 0.952875 8.6705C1.12019 8.83084 1.31769 8.9485 1.53125 9.01859V11.7831C1.53125 13.138 2.35678 14.3037 3.53125 14.8038V15.625C3.53125 15.8839 3.74113 16.0938 4 16.0938C4.25887 16.0938 4.46875 15.8839 4.46875 15.625V15.0463C4.58175 15.0582 4.69641 15.0643 4.8125 15.0643H12.1875C12.3036 15.0643 12.4183 15.0582 12.5312 15.0463V15.625C12.5312 15.8839 12.7411 16.0938 13 16.0938C13.2589 16.0938 13.4688 15.8839 13.4688 15.625V14.8038C14.6432 14.3037 15.4688 13.138 15.4688 11.7831V9.01859C15.6823 8.9485 15.8798 8.83087 16.0471 8.6705C16.3392 8.39053 16.5 8.01922 16.5 7.625ZM14.5312 11.7831C14.5312 13.0754 13.4798 14.1268 12.1875 14.1268H4.8125C3.52016 14.1268 2.46875 13.0754 2.46875 11.7831V9.09375H14.5312V11.7831ZM15 8.15625H2C1.70034 8.15625 1.4375 7.908 1.4375 7.625C1.4375 7.342 1.70034 7.09375 2 7.09375H15C15.2997 7.09375 15.5625 7.342 15.5625 7.625C15.5625 7.908 15.2997 8.15625 15 8.15625Z" fill="#8E8E93"/>
</g>
<defs>
<clipPath id="clip0_4517_13909">
<rect width="16" height="16" fill="white" transform="translate(0.5 0.5)"/>
</clipPath>
</defs>
</svg>
