<svg width="17" height="17" viewBox="0 0 17 17" fill="none" xmlns="http://www.w3.org/2000/svg">
<g clip-path="url(#clip0_1963_31546)">
<path d="M9.45979 12.1418C9.44178 11.8826 9.21706 11.687 8.95788 11.705C8.69869 11.723 8.50314 11.9477 8.52114 12.207L8.5526 12.6602C8.57057 12.9191 8.79488 13.1149 9.05451 13.097C9.3137 13.079 9.50925 12.8543 9.49124 12.595L9.45979 12.1418ZM11.6895 10.9836C11.5846 10.7459 11.3068 10.6382 11.0691 10.7431C10.8314 10.8479 10.7237 11.1257 10.8286 11.3634L11.0011 11.7544C11.106 11.9921 11.3837 12.0998 11.6214 11.9949C11.8591 11.8901 11.9668 11.6123 11.8619 11.3746L11.6895 10.9836ZM13.868 9.84792C13.6888 9.65993 13.391 9.65281 13.2029 9.83214C13.0149 10.0114 13.0078 10.3092 13.1871 10.4973L13.5007 10.8261C13.6799 11.014 13.9778 11.0212 14.1658 10.8418C14.3538 10.6625 14.3609 10.3647 14.1816 10.1767L13.868 9.84792ZM8.89788 14.5726C8.63838 14.5853 8.43828 14.806 8.45095 15.0655L8.47388 15.5346C8.48655 15.7941 8.70725 15.9942 8.96672 15.9815C9.22622 15.9688 9.42632 15.7481 9.41365 15.4886L9.39072 15.0196C9.37805 14.76 9.15725 14.5602 8.89788 14.5726ZM11.6311 13.912C11.5573 13.6629 11.2955 13.5208 11.0464 13.5947C10.7973 13.6685 10.6552 13.9303 10.729 14.1795L10.8546 14.6032C10.9286 14.8526 11.1906 14.9944 11.4394 14.9206C11.6885 14.8467 11.8306 14.5849 11.7568 14.3358L11.6311 13.912ZM13.8421 12.806C13.7079 12.5835 13.4188 12.5119 13.1963 12.6461C12.9738 12.7803 12.9023 13.0695 13.0365 13.292L13.2648 13.6704C13.3989 13.8929 13.6881 13.9645 13.9106 13.8303C14.1331 13.6961 14.2046 13.4069 14.0704 13.1844L13.8421 12.806ZM16.3633 12.0538L16.0323 11.7206C15.8492 11.5363 15.5513 11.5353 15.367 11.7185C15.1827 11.9016 15.1817 12.1995 15.3648 12.3838L15.6959 12.717C15.8788 12.9011 16.1767 12.9024 16.3612 12.7191C16.5455 12.536 16.5464 12.2381 16.3633 12.0538Z" fill="#8E8E93"/>
<path d="M13.9989 6.75148L13.8564 6.43157C13.621 5.90269 13.0623 5.61681 12.5158 5.7024L12.4279 5.505C11.9162 4.35565 10.7102 3.72273 9.50544 3.91543L9.19638 3.21323C8.47141 1.56621 6.8401 0.501953 5.0405 0.501953C2.53684 0.501953 0.5 2.53883 0.5 5.04245V16.0269C0.5 16.2867 0.710637 16.4973 0.970453 16.4973H2.85226C3.11208 16.4973 3.32272 16.2867 3.32272 16.0269V5.04245C3.32272 4.09527 4.09332 3.32467 5.0405 3.32467C5.72137 3.32467 6.33854 3.72725 6.61281 4.35041L6.94473 5.10427C6.08205 5.8865 5.80144 7.14459 6.2881 8.23823L6.37605 8.43557C5.95477 8.77728 5.7818 9.3799 6.02186 9.91913L6.16428 10.239C6.4756 10.9384 7.29528 11.2579 8.00049 10.944L13.2939 8.58765C13.9945 8.27584 14.3107 7.45211 13.9989 6.75148ZM11.5684 5.88769L11.6386 6.04552L7.218 8.01336L7.14768 7.8555C6.7467 6.95437 7.1416 5.89632 8.05688 5.48819L9.19989 4.97903C10.1284 4.56833 11.1708 4.99481 11.5684 5.88769ZM5.0405 2.38376C3.5745 2.38376 2.38181 3.57646 2.38181 5.04245V15.5564H1.44091V5.04245C1.44091 3.05764 3.05569 1.44286 5.0405 1.44286C6.46722 1.44286 7.7605 2.28657 8.33526 3.59229L8.60825 4.21254L7.74873 4.59542L7.47396 3.97135C7.04952 3.00693 6.09431 2.38376 5.0405 2.38376ZM12.9112 7.72811L7.61782 10.0845C7.39063 10.1856 7.12498 10.0836 7.02386 9.85643L6.88144 9.53649C6.86466 9.49886 6.85546 9.45828 6.85437 9.41709C6.85328 9.37589 6.86032 9.33489 6.8751 9.29642C6.88987 9.25795 6.91208 9.22276 6.94046 9.19288C6.96883 9.163 7.00282 9.13901 7.04048 9.12228L12.5827 6.65516C12.7407 6.58484 12.9265 6.65616 12.9969 6.8142L13.1393 7.13411C13.2402 7.36074 13.1379 7.62724 12.9112 7.72811Z" fill="#8E8E93"/>
</g>
<defs>
<clipPath id="clip0_1963_31546">
<rect width="16" height="16" fill="white" transform="translate(0.5 0.5)"/>
</clipPath>
</defs>
</svg>
