<svg width="17" height="17" viewBox="0 0 17 17" fill="none" xmlns="http://www.w3.org/2000/svg">
<g clip-path="url(#clip0_4517_13901)">
<path d="M14.6805 7.67821V3.22946C14.6805 2.32484 13.9445 1.58887 13.0399 1.58887H3.96003C3.05541 1.58887 2.3195 2.32484 2.3195 3.22946V7.67821C1.27713 7.92896 0.5 8.86855 0.5 9.98677V13.305C0.5 13.5682 0.713406 13.7816 0.976656 13.7816H2.31947V14.9345C2.31947 15.1977 2.53288 15.4111 2.79612 15.4111C3.05937 15.4111 3.27278 15.1977 3.27278 14.9345V13.7816H13.7272V14.9345C13.7272 15.1977 13.9406 15.4111 14.2038 15.4111C14.4671 15.4111 14.6805 15.1977 14.6805 14.9345V13.7816H16.0233C16.2865 13.7816 16.4999 13.5682 16.4999 13.305V9.98677C16.5 8.86855 15.7229 7.92896 14.6805 7.67821ZM3.27281 3.22946C3.27281 2.85052 3.58113 2.54221 3.96003 2.54221H13.0399C13.4189 2.54221 13.7272 2.85052 13.7272 3.22946V7.61202H12.152V6.86002C12.152 5.61409 11.1384 4.60046 9.89247 4.60046H7.10759C5.86166 4.60046 4.84803 5.61412 4.84803 6.86002V7.61199H3.27281V3.22946ZM11.1987 6.86002V7.61199H5.80128V6.86002C5.80128 6.13974 6.38725 5.55377 7.10753 5.55377H9.89244C10.6127 5.55374 11.1987 6.13977 11.1987 6.86002ZM1.45331 12.8283V9.98677C1.45331 9.20299 2.09097 8.56534 2.87475 8.56534H14.1252C14.909 8.56534 15.5466 9.20299 15.5466 9.98677V12.8283H1.45331Z" fill="#8E8E93"/>
</g>
<defs>
<clipPath id="clip0_4517_13901">
<rect width="16" height="16" fill="white" transform="translate(0.5 0.5)"/>
</clipPath>
</defs>
</svg>
