<svg width="20" height="20" viewBox="0 0 20 20" fill="none" xmlns="http://www.w3.org/2000/svg">
<path d="M16.6922 14.1925L14.1922 16.6925C14.0749 16.8098 13.9159 16.8757 13.75 16.8757C13.5842 16.8757 13.4251 16.8098 13.3078 16.6925C13.1905 16.5753 13.1247 16.4162 13.1247 16.2503C13.1247 16.0845 13.1905 15.9254 13.3078 15.8082L14.7414 14.3753H3.75C3.58424 14.3753 3.42527 14.3095 3.30806 14.1923C3.19085 14.0751 3.125 13.9161 3.125 13.7503C3.125 13.5846 3.19085 13.4256 3.30806 13.3084C3.42527 13.1912 3.58424 13.1253 3.75 13.1253H14.7414L13.3078 11.6925C13.1905 11.5753 13.1247 11.4162 13.1247 11.2503C13.1247 11.0845 13.1905 10.9254 13.3078 10.8082C13.4251 10.6909 13.5842 10.625 13.75 10.625C13.9159 10.625 14.0749 10.6909 14.1922 10.8082L16.6922 13.3082C16.7503 13.3662 16.7964 13.4351 16.8279 13.511C16.8593 13.5869 16.8755 13.6682 16.8755 13.7503C16.8755 13.8325 16.8593 13.9138 16.8279 13.9897C16.7964 14.0656 16.7503 14.1345 16.6922 14.1925ZM5.80782 9.19254C5.92509 9.30981 6.08415 9.3757 6.25 9.3757C6.41586 9.37569 6.57492 9.30981 6.69219 9.19254C6.80947 9.07526 6.87535 8.9162 6.87535 8.75035C6.87535 8.5845 6.80947 8.42544 6.69219 8.30816L5.2586 6.87535H16.25C16.4158 6.87535 16.5747 6.8095 16.6919 6.69229C16.8092 6.57508 16.875 6.41611 16.875 6.25035C16.875 6.08459 16.8092 5.92562 16.6919 5.80841C16.5747 5.6912 16.4158 5.62535 16.25 5.62535H5.2586L6.69219 4.19253C6.80947 4.07526 6.87535 3.9162 6.87535 3.75035C6.87535 3.5845 6.80947 3.42544 6.69219 3.30816C6.57492 3.19088 6.41586 3.125 6.25 3.125C6.08415 3.125 5.92509 3.19088 5.80782 3.30816L3.30782 5.80816C3.24971 5.86621 3.20361 5.93514 3.17215 6.01101C3.1407 6.08688 3.12451 6.16821 3.12451 6.25035C3.12451 6.33248 3.1407 6.41381 3.17215 6.48969C3.20361 6.56556 3.24971 6.63449 3.30782 6.69254L5.80782 9.19254Z" fill="white"/>
</svg>
