<svg width="20" height="20" viewBox="0 0 20 20" fill="none" xmlns="http://www.w3.org/2000/svg">
<path d="M11.875 8.74969C11.875 8.91545 11.8091 9.07442 11.6919 9.19163C11.5747 9.30884 11.4158 9.37469 11.25 9.37469H9.375V11.2497C9.375 11.4155 9.30915 11.5744 9.19194 11.6916C9.07473 11.8088 8.91576 11.8747 8.75 11.8747C8.58423 11.8747 8.42526 11.8088 8.30805 11.6916C8.19084 11.5744 8.125 11.4155 8.125 11.2497V9.37469H6.25C6.08423 9.37469 5.92526 9.30884 5.80805 9.19163C5.69084 9.07442 5.625 8.91545 5.625 8.74969C5.625 8.58393 5.69084 8.42496 5.80805 8.30775C5.92526 8.19054 6.08423 8.12469 6.25 8.12469H8.125V6.24969C8.125 6.08393 8.19084 5.92496 8.30805 5.80775C8.42526 5.69054 8.58423 5.62469 8.75 5.62469C8.91576 5.62469 9.07473 5.69054 9.19194 5.80775C9.30915 5.92496 9.375 6.08393 9.375 6.24969V8.12469H11.25C11.4158 8.12469 11.5747 8.19054 11.6919 8.30775C11.8091 8.42496 11.875 8.58393 11.875 8.74969ZM17.9422 17.9419C17.8841 18 17.8152 18.0461 17.7393 18.0775C17.6635 18.109 17.5821 18.1252 17.5 18.1252C17.4179 18.1252 17.3365 18.109 17.2607 18.0775C17.1848 18.0461 17.1159 18 17.0578 17.9419L13.1469 14.0302C11.7857 15.1639 10.0398 15.7293 8.27244 15.6086C6.50506 15.488 4.85223 14.6906 3.65779 13.3823C2.46334 12.074 1.81926 10.3557 1.85951 8.58462C1.89976 6.81357 2.62125 5.12622 3.87389 3.87358C5.12653 2.62094 6.81388 1.89945 8.58492 1.8592C10.356 1.81895 12.0744 2.46304 13.3826 3.65748C14.6909 4.85192 15.4883 6.50475 15.6089 8.27214C15.7296 10.0395 15.1642 11.7854 14.0305 13.1466L17.9422 17.0575C18.0003 17.1155 18.0464 17.1845 18.0778 17.2604C18.1093 17.3362 18.1255 17.4176 18.1255 17.4997C18.1255 17.5818 18.1093 17.6632 18.0778 17.739C18.0464 17.8149 18.0003 17.8838 17.9422 17.9419ZM8.75 14.3747C9.86252 14.3747 10.9501 14.0448 11.8751 13.4267C12.8001 12.8086 13.5211 11.9301 13.9468 10.9023C14.3726 9.87445 14.484 8.74345 14.2669 7.65231C14.0499 6.56116 13.5141 5.55888 12.7275 4.77221C11.9408 3.98554 10.9385 3.44981 9.84738 3.23277C8.75624 3.01573 7.62524 3.12712 6.5974 3.55287C5.56957 3.97861 4.69106 4.69958 4.07298 5.62461C3.4549 6.54963 3.125 7.63717 3.125 8.74969C3.12665 10.241 3.71981 11.6708 4.77435 12.7253C5.82888 13.7799 7.25866 14.373 8.75 14.3747Z" fill="white"/>
</svg>
