<svg width="12" height="17" viewBox="0 0 12 17" fill="none" xmlns="http://www.w3.org/2000/svg">
<path d="M5.44921 15.7002C1.39355 9.5267 0.640747 8.89311 0.640747 6.62427C0.640747 3.51644 3.04015 0.99707 5.99998 0.99707C8.95982 0.99707 11.3592 3.51644 11.3592 6.62427C11.3592 8.89311 10.6064 9.5267 6.55076 15.7002C6.28461 16.1039 5.71533 16.1038 5.44921 15.7002ZM5.99998 8.96893C7.23325 8.96893 8.233 7.9192 8.233 6.62427C8.233 5.32934 7.23325 4.2796 5.99998 4.2796C4.76672 4.2796 3.76697 5.32934 3.76697 6.62427C3.76697 7.9192 4.76672 8.96893 5.99998 8.96893Z" fill="#8E8E93"/>
</svg>
