<svg width="17" height="17" viewBox="0 0 17 17" fill="none" xmlns="http://www.w3.org/2000/svg">
<g clip-path="url(#clip0_4517_13916)">
<path d="M5.36694 5.27075C3.80119 5.27075 2.52734 6.5446 2.52734 8.11035C2.52734 9.6761 3.80119 10.9499 5.36694 10.9499C6.93269 10.9499 8.20653 9.6761 8.20653 8.11035C8.20653 6.5446 6.93269 5.27075 5.36694 5.27075ZM5.36694 10.0124C4.31809 10.0124 3.46484 9.15916 3.46484 8.11035C3.46484 7.06153 4.31813 6.20825 5.36694 6.20825C6.41575 6.20825 7.26903 7.06153 7.26903 8.11035C7.26903 9.15916 6.41575 10.0124 5.36694 10.0124Z" fill="#8E8E93"/>
<path d="M16.0312 11.673H12.4411V10.7055C12.4411 10.4466 12.2312 10.2367 11.9723 10.2367H10.2329V8.02678C10.2329 7.675 10.195 7.33193 10.1238 7.00112L10.8063 6.49121C11.1027 6.26981 11.2951 5.94621 11.3482 5.58009C11.4012 5.21393 11.3084 4.84909 11.087 4.55268L10.3078 3.50965C10.0864 3.21325 9.76284 3.02084 9.39669 2.96781C9.0305 2.91481 8.66569 3.00753 8.36928 3.22896L7.67809 3.74531C6.99003 3.37234 6.20256 3.16031 5.36647 3.16031C2.68306 3.16034 0.5 5.3434 0.5 8.02678V11.7749C0.5 13.0277 1.51916 14.0468 2.77187 14.0468H11.9723C12.2312 14.0468 12.4411 13.8369 12.4411 13.5781V12.6105H15.5625V13.572C15.5625 13.8309 15.7724 14.0408 16.0312 14.0408C16.2901 14.0408 16.5 13.8309 16.5 13.572V12.1417C16.5 11.8829 16.2901 11.673 16.0312 11.673ZM8.93034 3.98003C9.02609 3.9085 9.14391 3.8785 9.26234 3.89565C9.38066 3.91278 9.48519 3.97496 9.55675 4.07071L10.336 5.11378C10.4075 5.20956 10.4375 5.32743 10.4204 5.44575C10.4032 5.56406 10.3411 5.66862 10.2453 5.74015L9.81728 6.0599C9.51484 5.37815 9.06025 4.77846 8.49681 4.30393L8.93034 3.98003ZM11.5036 13.1093H2.77187C2.03609 13.1093 1.4375 12.5107 1.4375 11.7749V8.02678C1.4375 5.86034 3.20003 4.09784 5.36647 4.09784C7.53291 4.09784 9.29544 5.86037 9.29544 8.02681V10.7055C9.29544 10.9644 9.50531 11.1742 9.76419 11.1742H11.5036V13.1093H11.5036Z" fill="#8E8E93"/>
</g>
<defs>
<clipPath id="clip0_4517_13916">
<rect width="16" height="16" fill="white" transform="translate(0.5 0.5)"/>
</clipPath>
</defs>
</svg>
