<svg width="18" height="19" viewBox="0 0 18 19" fill="none" xmlns="http://www.w3.org/2000/svg">
<path d="M7.5 3.5C7.5 3.69891 7.42098 3.88968 7.28033 4.03033C7.13968 4.17098 6.94891 4.25 6.75 4.25H4.8075L6.5325 5.9675C6.67373 6.10873 6.75307 6.30027 6.75307 6.5C6.75307 6.69973 6.67373 6.89127 6.5325 7.0325C6.39127 7.17373 6.19973 7.25307 6 7.25307C5.80027 7.25307 5.60873 7.17373 5.4675 7.0325L3.75 5.3075V7.25C3.75 7.44891 3.67098 7.63968 3.53033 7.78033C3.38968 7.92098 3.19891 8 3 8C2.80109 8 2.61032 7.92098 2.46967 7.78033C2.32902 7.63968 2.25 7.44891 2.25 7.25V3.5C2.25028 3.35223 2.29421 3.20784 2.37627 3.08494C2.45833 2.96205 2.57487 2.86614 2.71125 2.80925C2.80263 2.77059 2.90078 2.75046 3 2.75H6.75C6.94891 2.75 7.13968 2.82902 7.28033 2.96967C7.42098 3.11032 7.5 3.30109 7.5 3.5ZM6.75 14.75H4.8075L6.5325 13.0325C6.67373 12.8913 6.75307 12.6997 6.75307 12.5C6.75307 12.3003 6.67373 12.1087 6.5325 11.9675C6.39127 11.8263 6.19973 11.7469 6 11.7469C5.80027 11.7469 5.60873 11.8263 5.4675 11.9675L3.75 13.6925V11.75C3.75 11.5511 3.67098 11.3603 3.53033 11.2197C3.38968 11.079 3.19891 11 3 11C2.80109 11 2.61032 11.079 2.46967 11.2197C2.32902 11.3603 2.25 11.5511 2.25 11.75V15.5C2.25083 15.6968 2.32894 15.8853 2.4675 16.025C2.5365 16.0925 2.6175 16.1458 2.7075 16.1825C2.79945 16.2245 2.89895 16.2474 3 16.25H6.75C6.94891 16.25 7.13968 16.171 7.28033 16.0303C7.42098 15.8897 7.5 15.6989 7.5 15.5C7.5 15.3011 7.42098 15.1103 7.28033 14.9697C7.13968 14.829 6.94891 14.75 6.75 14.75ZM15.69 3.215C15.6339 3.07792 15.5384 2.96056 15.4156 2.87779C15.2927 2.79501 15.1481 2.75054 15 2.75H11.25C11.0511 2.75 10.8603 2.82902 10.7197 2.96967C10.579 3.11032 10.5 3.30109 10.5 3.5C10.5 3.69891 10.579 3.88968 10.7197 4.03033C10.8603 4.17098 11.0511 4.25 11.25 4.25H13.1925L11.4675 5.9675C11.3976 6.03743 11.3421 6.12045 11.3043 6.21181C11.2664 6.30318 11.2469 6.40111 11.2469 6.5C11.2469 6.59889 11.2664 6.69682 11.3043 6.78819C11.3421 6.87955 11.3976 6.96257 11.4675 7.0325C11.5374 7.10243 11.6204 7.1579 11.7118 7.19574C11.8032 7.23359 11.9011 7.25307 12 7.25307C12.0989 7.25307 12.1968 7.23359 12.2882 7.19574C12.3796 7.1579 12.4626 7.10243 12.5325 7.0325L14.25 5.3075V7.25C14.25 7.44891 14.329 7.63968 14.4697 7.78033C14.6103 7.92098 14.8011 8 15 8C15.1989 8 15.3897 7.92098 15.5303 7.78033C15.671 7.63968 15.75 7.44891 15.75 7.25V3.5C15.7488 3.40199 15.7284 3.30517 15.69 3.215ZM15 11C14.8011 11 14.6103 11.079 14.4697 11.2197C14.329 11.3603 14.25 11.5511 14.25 11.75V13.6925L12.5325 11.9675C12.3913 11.8263 12.1997 11.7469 12 11.7469C11.8003 11.7469 11.6087 11.8263 11.4675 11.9675C11.3263 12.1087 11.2469 12.3003 11.2469 12.5C11.2469 12.6997 11.3263 12.8913 11.4675 13.0325L13.1925 14.75H11.25C11.0511 14.75 10.8603 14.829 10.7197 14.9697C10.579 15.1103 10.5 15.3011 10.5 15.5C10.5 15.6989 10.579 15.8897 10.7197 16.0303C10.8603 16.171 11.0511 16.25 11.25 16.25H15C15.0955 16.2479 15.1897 16.2275 15.2775 16.19C15.4608 16.1139 15.6064 15.9683 15.6825 15.785C15.7235 15.6954 15.7465 15.5985 15.75 15.5V11.75C15.75 11.5511 15.671 11.3603 15.5303 11.2197C15.3897 11.079 15.1989 11 15 11Z" fill="#8E8E93"/>
</svg>
