<svg width="16" height="17" viewBox="0 0 16 17" fill="none" xmlns="http://www.w3.org/2000/svg">
<g clip-path="url(#clip0_111_4895)">
<path d="M6.38847 0.500488H2.75487V2.71624L6.38847 2.11064V0.500488ZM14.3879 15.5618V5.07158H8.46875V15.5618H7.53125V2.87064L1.61213 3.85714V15.5618H0V16.4993H16V15.5618H14.3879ZM12.0732 6.41961H13.069V7.35711H12.0732V6.41961ZM12.0732 8.70518H13.069V9.64268H12.0732V8.70518ZM12.0732 10.9907H13.069V11.9282H12.0732V10.9907ZM12.0732 13.2763H13.069V14.2138H12.0732V13.2763ZM9.78766 6.41961H10.7834V7.35711H9.78766V6.41961ZM9.78766 8.70518H10.7834V9.64268H9.78766V8.70518ZM9.78766 10.9907H10.7834V11.9282H9.78766V10.9907ZM9.78766 13.2763H10.7834V14.2138H9.78766V13.2763ZM5.21656 4.13408H6.21234V5.07158H5.21656V4.13408ZM5.21656 6.41961H6.21234V7.35711H5.21656V6.41961ZM5.21656 8.70518H6.21234V9.64268H5.21656V8.70518ZM5.21656 10.9907H6.21234V11.9282H5.21656V10.9907ZM2.93103 6.41961H3.92681V7.35711H2.93103V6.41961ZM2.93103 8.70518H3.92681V9.64268H2.93103V8.70518ZM2.93103 10.9907H3.92681V11.9282H2.93103V10.9907ZM2.96016 13.2763H6.18322V15.5618H5.24572V14.2138H3.89766V15.5618H2.96016V13.2763Z" fill="white"/>
</g>
<defs>
<clipPath id="clip0_111_4895">
<rect width="16" height="16" fill="white" transform="translate(0 0.5)"/>
</clipPath>
</defs>
</svg>
