<svg width="16" height="16" viewBox="0 0 16 16" fill="none" xmlns="http://www.w3.org/2000/svg">
<path d="M12.6667 1.33325H6.00004C5.26471 1.33325 4.66671 1.93125 4.66671 2.66659V6.39059L1.52871 9.52858C1.33804 9.71925 1.28071 10.0059 1.38404 10.2553C1.48738 10.5046 1.73071 10.6666 2.00004 10.6666V11.3333V13.9999C2.00004 14.3686 2.29871 14.6666 2.66671 14.6666H8.00004H13.3334C13.702 14.6666 14 14.3686 14 13.9999V2.66659C14 1.93125 13.402 1.33325 12.6667 1.33325ZM7.33338 13.3333H3.33338V11.3333V9.99992V9.60925L5.33338 7.60925L7.33338 9.60925V9.99992V11.9999V13.3333ZM12.6667 13.3333H8.66671V11.9999V10.6666C8.93604 10.6666 9.18004 10.5046 9.28271 10.2553C9.38604 10.0059 9.32871 9.71925 9.13804 9.52858L6.00004 6.39059V2.66659H12.6667V13.3333Z" fill="white"/>
<path d="M7.33341 4H8.66675V5.33333H7.33341V4ZM10.0001 4H11.3334V5.33333H10.0001V4ZM10.0001 6.68733H11.3334V8H10.0001V6.68733ZM10.0001 9.33333H11.3334V10.6667H10.0001V9.33333ZM4.66675 10H6.00008V11.3333H4.66675V10Z" fill="white"/>
</svg>
