<svg width="16" height="16" viewBox="0 0 16 16" fill="none" xmlns="http://www.w3.org/2000/svg">
<g clip-path="url(#clip0_193_2158)">
<path d="M3.32251 8.70337H5.19576V6.82837H3.32251V8.70337ZM4.35251 7.01587H5.00826V7.67187H4.35251V7.01587ZM4.35251 7.85962H5.00826V8.51612H4.35251V7.85962ZM3.50951 7.01587H4.16501V7.67187H3.50951V7.01587ZM3.50951 7.85962H4.16501V8.51612H3.50951V7.85962Z" fill="white"/>
<path d="M7.58423 8.70337H8.89548V6.82837H7.58423V8.70337ZM8.33373 7.01587H8.70873V7.67187H8.33373V7.01587ZM8.33373 7.85962H8.70873V8.51612H8.33373V7.85962ZM7.77173 7.01587H8.14598V7.67187H7.77173V7.01587ZM7.77173 7.85962H8.14598V8.51612H7.77173V7.85962Z" fill="white"/>
<path d="M8.80879 11.5256H6.93579V13.4009H8.80879V11.5256ZM7.77854 13.2131H7.12279V12.5571H7.77854V13.2131ZM7.77854 12.3696H7.12279V11.7131H7.77854V12.3696ZM8.62154 13.2131H7.96554V12.5571H8.62154V13.2131ZM8.62154 12.3696H7.96554V11.7131H8.62154V12.3696Z" fill="white"/>
<path d="M15.351 12.4695C15.335 12.4745 15.2193 12.5088 15.1088 12.5878C15.0428 12.5405 14.9785 12.511 14.932 12.493V12.2775V12.1225L14.7828 12.165C14.767 12.1693 14.651 12.2038 14.5405 12.2833C14.4305 12.204 14.315 12.1693 14.299 12.165L14.1497 12.1225V12.2773V12.4005L14.014 12.4385C13.9982 12.4438 13.8823 12.4778 13.7718 12.557C13.7405 12.535 13.7098 12.5173 13.6803 12.5018V9.13602C13.699 9.14877 13.7145 9.15677 13.7345 9.17077C14.8315 9.93252 14.9852 8.64427 14.8652 8.18952C14.6367 7.32052 15.2672 7.10877 15.441 6.38552C15.7492 5.09902 14.724 4.39752 15.0407 3.16952C15.3585 1.94177 14.3115 -0.75673 12.9615 1.17727C12.5155 1.81652 11.9682 0.66877 11.263 1.65627C10.5575 2.64327 10.9235 3.49627 11.1405 4.14077C11.5728 5.42177 10.707 5.83702 11.2747 6.90952C11.8425 7.98152 11.0267 8.49827 12.096 9.09627C12.4447 9.29102 12.6227 9.28452 12.7435 9.21527V10.263L9.87925 9.47077V5.65627H10.5815L8.474 4.31377V2.84377H8.7085V2.37502H8.24H7.069V2.84377H7.3035V3.56777L5.43025 2.37502L0.7465 5.65627H1.44875V9.59602L0.5 10.3638H1.44875V14.5625H0.51225V15.5H15.4745V14.5625H15.1543V13.4305H15.2005C15.3657 13.4305 15.5002 13.2963 15.5002 13.1308V12.5825V12.4275L15.351 12.4695ZM14.4607 5.00952C14.7202 5.00952 14.9312 5.22027 14.9312 5.48052C14.9312 5.74027 14.7202 5.95152 14.4607 5.95152C14.2002 5.95152 14.609 5.74027 14.609 5.48052C14.609 5.22027 14.2002 5.00952 14.4607 5.00952ZM14.0533 2.48102C14.2285 2.48102 14.3708 2.62302 14.3708 2.79852C14.3708 2.97402 14.2288 3.11602 14.0533 3.11602C13.8783 3.11602 14.139 2.97402 14.139 2.79852C14.139 2.62302 13.8783 2.48102 14.0533 2.48102ZM14.0492 7.64852C14.2432 7.64852 14.4005 7.80577 14.4005 8.00002C14.4005 8.19477 14.2432 8.35152 14.0492 8.35152C13.8547 8.35152 14.0492 8.19477 14.0492 8.00002C14.0492 7.80577 13.8547 7.64852 14.0492 7.64852ZM7.0695 5.65627H9.41075V9.40627H7.0695V5.65627ZM1.9175 5.65627H6.60075V9.40627H1.9175V5.65627ZM4.8535 13.2353C4.77725 13.2353 4.71625 13.1738 4.71625 13.0975C4.71625 13.0218 4.77725 12.9605 4.8535 12.9605C4.9295 12.9605 4.991 13.0218 4.991 13.0975C4.991 13.1738 4.9295 13.2353 4.8535 13.2353ZM9.61275 14.5625H5.1735V11.999H5.35675V11.6328H4.99075H3.16125V11.999H3.34375V14.5625H1.9175V10.3638H9.61275V14.5625ZM11.2633 13.2133H11.0332V12.5573H11.2402V13.1C11.2402 13.1403 11.2488 13.1783 11.2633 13.2133ZM11.0332 12.3698V11.7133H11.408V12.3698H11.0332ZM11.3575 12.5515C11.3575 12.5515 11.5233 12.5988 11.6313 12.711C11.7398 12.599 11.9055 12.5515 11.9055 12.5515V13.1C11.9055 13.201 11.8237 13.2833 11.7227 13.2833H11.5402C11.4392 13.2833 11.358 13.201 11.358 13.1V12.5515H11.3575ZM11.5855 14.5625H10.0815V10.3638H10.4703H11.797V12.4665C11.7507 12.4853 11.691 12.5143 11.6313 12.557C11.6193 12.5485 11.607 12.5418 11.5948 12.5345V11.5255H10.2835V13.4008H11.5855V14.5625ZM10.471 12.3698V11.7133H10.8455V12.3698H10.471ZM10.8455 12.5573V13.2133H10.471V12.5573H10.8455ZM11.797 14.5625H11.677V13.8228C11.705 13.873 11.746 13.9138 11.797 13.9413V14.5625ZM12.077 14.5625H11.986V13.9793H12.077V14.5625ZM12.118 13.862H11.935C11.8343 13.862 11.7522 13.7808 11.7522 13.6795V13.3943C11.8487 13.3845 11.9292 13.3298 11.9762 13.2503C11.9932 13.2635 12.0112 13.2743 12.0265 13.29C12.1345 13.178 12.3005 13.1313 12.3005 13.1313V13.6793C12.3005 13.7808 12.2188 13.862 12.118 13.862ZM12.3542 14.5625H12.2657V13.9343C12.3012 13.9138 12.3302 13.8873 12.3542 13.8553V14.5625ZM12.3042 13.008C12.2055 13.0055 12.1257 12.9255 12.1257 12.826V12.2773C12.1257 12.2773 12.2917 12.3243 12.4 12.4368C12.5082 12.3245 12.6742 12.2773 12.6742 12.2773V12.826C12.6742 12.927 12.5922 13.0088 12.4915 13.0088H12.418V12.9758L12.3042 13.008ZM12.744 14.5625H12.4455V13.1263H12.4915C12.5662 13.1263 12.6325 13.096 12.6853 13.0505V13.1305C12.6853 13.1948 12.7098 13.2508 12.744 13.2995V14.5625ZM12.744 12.1363L12.642 12.165C12.6263 12.1693 12.5102 12.2038 12.4 12.2833C12.353 12.2493 12.3065 12.2258 12.2657 12.2068V10.3638H12.744V12.1363ZM14.1635 13.1V12.8925C14.1807 12.967 14.2237 13.029 14.2852 13.0703C14.2492 13.088 14.2112 13.1085 14.1725 13.1365C14.1675 13.1333 14.1628 13.1308 14.1578 13.1273C14.159 13.1183 14.1635 13.1098 14.1635 13.1ZM12.8278 4.63177C12.8278 4.82627 13.0215 4.98327 12.8278 4.98327C12.6338 4.98327 12.4762 4.82627 12.4762 4.63177C12.4762 4.43777 12.6338 4.28027 12.8278 4.28027C13.0215 4.28027 12.8278 4.43777 12.8278 4.63177ZM12.818 2.00477C13.0805 2.00477 12.69 2.21827 12.69 2.48102C12.69 2.74377 13.0805 2.95702 12.818 2.95702C12.555 2.95702 12.3418 2.74377 12.3418 2.48102C12.3418 2.21827 12.5552 2.00477 12.818 2.00477ZM11.7118 3.68802C11.7118 3.49402 11.8695 3.33652 12.0632 3.33652C12.2567 3.33652 12.0048 3.49402 12.0048 3.68802C12.0048 3.88277 12.257 4.03977 12.0632 4.03977C11.8695 4.03977 11.7118 3.88277 11.7118 3.68802ZM12.6088 6.97727C12.2213 6.97727 11.9062 6.66227 11.9062 6.27402C11.9062 5.88577 12.2213 5.57077 12.6088 5.57077C12.997 5.57077 12.4555 5.88577 12.4555 6.27402C12.4555 6.66227 12.9968 6.97727 12.6088 6.97727ZM13.105 14.5625H13.014V13.4305H13.105V14.5625ZM13.3503 13.1305C13.3503 13.2318 13.2685 13.313 13.1678 13.313H12.9853C12.8843 13.313 12.8025 13.2318 12.8025 13.1305V12.5825C12.8025 12.5825 12.9682 12.6293 13.0767 12.7415C13.1847 12.6293 13.3507 12.5825 13.3507 12.5825V13.1305H13.3503ZM13.4983 13.1V12.5515C13.4983 12.5515 13.664 12.5988 13.7723 12.7113C13.8805 12.599 14.0465 12.5515 14.0465 12.5515V13.1C14.0465 13.201 13.965 13.2833 13.8638 13.2833H13.6815C13.5803 13.2835 13.4983 13.2013 13.4983 13.1ZM13.727 14.5625H13.6805V13.4008H13.681H13.727V14.5625ZM14.1267 14.5625H13.8182V13.8158C13.8685 13.912 13.966 13.9798 14.0815 13.9798H14.127L14.1267 14.5625ZM14.0813 13.8625C13.9803 13.8625 13.8982 13.7805 13.8982 13.6793V13.3933C13.9935 13.382 14.0728 13.3273 14.119 13.2485C14.137 13.2625 14.1563 13.273 14.1728 13.29C14.281 13.178 14.447 13.1305 14.447 13.1305V13.679C14.447 13.7803 14.365 13.8623 14.2642 13.8623H14.2183H14.127L14.0813 13.8625ZM14.4952 14.5625H14.218V13.9798H14.264C14.3592 13.9798 14.4405 13.932 14.4955 13.8625L14.4952 14.5625ZM14.4495 13.009C14.3485 13.009 14.2673 12.9273 14.2673 12.8263V12.2775C14.2673 12.2775 14.4325 12.3245 14.5407 12.4368C14.649 12.3248 14.815 12.2775 14.815 12.2775V12.8263C14.815 12.9273 14.7332 13.009 14.6322 13.009H14.5865H14.4955H14.4495ZM15.063 14.5625H14.5865V13.1263H14.6322C14.6625 13.1263 14.69 13.1178 14.7177 13.1093V13.1308C14.7177 13.2963 14.8522 13.4305 15.0177 13.4305H15.0632L15.063 14.5625ZM15.3827 13.1305C15.3827 13.2318 15.301 13.313 15.2002 13.313H15.154H15.063H15.0175C14.9165 13.313 14.8348 13.2318 14.8348 13.1305V13.0445C14.8938 12.9893 14.9323 12.9128 14.9323 12.826V12.621C14.987 12.6465 15.0548 12.6853 15.109 12.7413C15.217 12.629 15.383 12.5823 15.383 12.5823V13.1305H15.3827Z" fill="white"/>
</g>
<defs>
<clipPath id="clip0_193_2158">
<rect width="16" height="16" fill="white"/>
</clipPath>
</defs>
</svg>
