<svg width="16" height="16" viewBox="0 0 16 16" fill="none" xmlns="http://www.w3.org/2000/svg">
<path d="M7.55712 1.50192C7.67913 1.39358 7.83662 1.33374 7.99979 1.33374C8.16295 1.33374 8.32045 1.39358 8.44245 1.50192L14.4425 6.83525C14.5679 6.9544 14.6421 7.11763 14.6494 7.29047C14.6567 7.4633 14.5965 7.63221 14.4816 7.76151C14.3666 7.8908 14.206 7.97036 14.0335 7.98337C13.861 7.99639 13.6902 7.94184 13.5571 7.83125L13.3331 7.63325V12.6666C13.3331 13.0202 13.1926 13.3593 12.9426 13.6094C12.6925 13.8594 12.3534 13.9999 11.9998 13.9999H3.99979C3.64617 13.9999 3.30703 13.8594 3.05698 13.6094C2.80693 13.3593 2.66646 13.0202 2.66646 12.6666V7.63325L2.44246 7.83125C2.30943 7.94184 2.13862 7.99639 1.96612 7.98337C1.79362 7.97036 1.63293 7.8908 1.518 7.76151C1.40307 7.63221 1.3429 7.4633 1.3502 7.29047C1.3575 7.11763 1.4317 6.9544 1.55712 6.83525L7.55712 1.50192ZM3.99979 6.44659V12.6666H5.99979V9.33325C5.99979 9.15644 6.07003 8.98687 6.19505 8.86185C6.32007 8.73682 6.48964 8.66659 6.66646 8.66659H9.33312C9.50993 8.66659 9.6795 8.73682 9.80453 8.86185C9.92955 8.98687 9.99979 9.15644 9.99979 9.33325V12.6666H11.9998V6.44725L7.99979 2.89192L3.99979 6.44659ZM8.66646 12.6666V9.99992H7.33312V12.6666H8.66646Z" fill="white"/>
</svg>
