<svg width="16" height="17" viewBox="0 0 16 17" fill="none" xmlns="http://www.w3.org/2000/svg">
<g clip-path="url(#clip0_111_4890)">
<path d="M0 0.5V2.10001H0.799987V16.5H6.39997V13.3H9.59999V16.5H15.2V2.10001H16V0.5H0ZM4.8 11.7H3.19999V10.1H4.8V11.7ZM4.8 8.49998H3.19999V6.89997H4.8V8.49998ZM4.8 5.3H3.19999V3.69999H4.8V5.3ZM8.80001 11.7H7.19999V10.1H8.80001V11.7ZM8.80001 8.49998H7.19999V6.89997H8.80001V8.49998ZM8.80001 5.3H7.19999V3.69999H8.80001V5.3ZM12.8 11.7H11.2V10.1H12.8V11.7ZM12.8 8.49998H11.2V6.89997H12.8V8.49998ZM12.8 5.3H11.2V3.69999H12.8V5.3Z" fill="white"/>
</g>
<defs>
<clipPath id="clip0_111_4890">
<rect width="16" height="16" fill="white" transform="translate(0 0.5)"/>
</clipPath>
</defs>
</svg>
