<svg xmlns="http://www.w3.org/2000/svg" width="75" height="74" viewBox="0 0 75 74" fill="none"><g clip-path="url(#clip0_111_4296)"><path d="M35.6671 69.2363C32.4243 69.3784 28.641 69.3784 25.3976 69.2363C24.5208 69.1977 23.8873 68.3843 24.0617 67.5238L24.5767 64.9894L25.7098 56.7235H35.3555L36.4887 64.9894L37.0035 67.5238C37.1779 68.3843 36.5439 69.1977 35.6671 69.2362V69.2363Z" fill="url(#paint0_linear_111_4296)"></path><path d="M37.0037 67.5238L36.4889 64.9894L35.3557 56.7235H25.71L25.0986 61.1842L33.2285 69.3141C34.0629 69.2966 34.8815 69.2707 35.6673 69.2362C36.5442 69.1977 37.1781 68.3843 37.0037 67.5238Z" fill="url(#paint1_linear_111_4296)"></path><path d="M3.11394 61.1769H4.23463C6.35577 61.1769 8.40234 60.3719 9.94015 58.9107C10.6114 58.2733 11.2722 57.6252 11.9224 56.9664C12.4751 56.4068 13.3541 57.1384 12.9127 57.7896C12.8929 57.8189 12.8725 57.8482 12.8529 57.877C11.8981 59.2794 12.8935 61.1769 14.5906 61.1769H15.7768C18.2474 61.1769 20.5356 59.9045 21.863 57.8212C21.9826 57.6332 22.1017 57.4434 22.2197 57.2532C22.4693 56.8513 23.0858 57.1516 22.926 57.5965C22.917 57.6213 22.9085 57.6456 22.8994 57.6699C22.2841 59.3788 23.556 61.1769 25.3723 61.1769H26.1317C28.2651 61.1769 30.0595 59.603 30.3699 57.4925C30.4777 56.7627 30.5879 56.7627 30.6951 57.4925C31.0056 59.603 32.8004 61.1769 34.9334 61.1769H35.6984C37.5118 61.1769 38.7827 59.3811 38.1672 57.6749C38.1589 57.6507 38.1499 57.6264 38.1412 57.6015C37.9815 57.1561 38.5987 56.8557 38.8481 57.2577C38.9662 57.4469 39.0842 57.6349 39.2032 57.8222C40.5306 59.9049 42.8188 61.1769 45.2889 61.1769H46.475C48.1721 61.1769 49.1675 59.2794 48.2123 57.877L48.1529 57.7896C47.7114 57.1386 48.5898 56.4068 49.1432 56.9664C49.7933 57.6251 50.4539 58.2733 51.1248 58.9108C52.6633 60.3719 54.7093 61.1771 56.831 61.1771H57.9517C60.3709 61.1771 61.4859 58.174 59.6544 56.5925C44.4786 43.4872 30.5325 18.1841 30.5325 5.68604C30.5325 18.1841 16.5864 43.4872 1.41064 56.5927C-0.420285 58.174 0.694195 61.1769 3.11394 61.1769Z" fill="url(#paint2_linear_111_4296)"></path><path d="M59.6544 56.5925C49.2228 47.5841 39.3721 32.8119 34.2328 20.3976H26.8321C24.4666 26.1116 21.1023 32.3243 17.1435 38.2455L17.2406 38.7226L16.7246 41.1745L36.5767 61.0266C37.8922 60.562 38.677 59.0885 38.1671 57.6748C38.1587 57.6505 38.1498 57.6262 38.1411 57.6014C37.9814 57.1559 38.5985 56.8556 38.848 57.2575C38.9655 57.4463 39.0838 57.6345 39.2031 57.8221C40.5305 59.9048 42.8187 61.1768 45.2888 61.1768H46.4749C48.172 61.1768 49.1674 59.2792 48.2122 57.8769C48.1922 57.8481 48.1726 57.8187 48.1528 57.7894C47.7112 57.1384 48.5897 56.4067 49.1431 56.9667C49.7934 57.6251 50.454 58.2732 51.1246 58.9107C52.6632 60.3717 54.7092 61.1769 56.8309 61.1769H57.9516C60.3707 61.1769 61.4858 58.1739 59.6543 56.5924L59.6544 56.5925Z" fill="url(#paint3_linear_111_4296)"></path><path d="M52.2127 41.6906H51.3269C49.6496 41.6906 48.0315 41.0532 46.8147 39.8987C46.284 39.3948 45.7617 38.8822 45.248 38.3609C44.8111 37.9192 44.116 38.4973 44.4645 39.0123L44.5119 39.0817C45.2667 40.1905 44.4801 41.6906 43.1383 41.6906H42.2004C40.2471 41.6906 38.4376 40.6851 37.3891 39.0383C37.2937 38.8901 37.1996 38.741 37.1069 38.5911C36.9099 38.2732 36.4221 38.5121 36.549 38.8643C36.5548 38.8831 36.562 38.9033 36.5689 38.922C37.0556 40.2713 36.0512 41.6906 34.6172 41.6906H34.0119C32.3261 41.6906 30.9062 40.4462 30.6606 38.778C30.5753 38.1999 30.4889 38.1999 30.4042 38.778C30.1587 40.4463 28.7388 41.6906 27.053 41.6906H26.4517C25.0165 41.6906 24.011 40.2678 24.4971 38.9175C24.5043 38.8987 24.5112 38.8785 24.5169 38.8598C24.6439 38.5076 24.1561 38.2704 23.959 38.5882C23.8662 38.7386 23.7723 38.8882 23.6773 39.0371C22.6273 40.6851 20.8178 41.6907 18.8644 41.6907H17.9266C16.5846 41.6907 15.7982 40.1905 16.5529 39.0817C16.5688 39.0585 16.5847 39.0354 16.6003 39.0123C16.9487 38.4973 16.2537 37.9192 15.8168 38.3607C15.3032 38.882 14.7809 39.3947 14.2501 39.8985C13.0334 41.0532 11.4153 41.6907 9.73799 41.6907H8.85216C6.93943 41.6907 6.0575 39.3161 7.50628 38.066C17.0623 29.8114 26.0028 15.4411 29.2481 4.93948C29.7929 3.16897 30.1785 1.50758 30.3772 0.00460254C30.4292 0.00171191 30.4805 0.00012207 30.5324 0.00012207C30.5843 0.00012207 30.6363 0.00185645 30.6877 0.00460254C30.8864 1.50758 31.272 3.16911 31.8169 4.93962C35.062 15.4413 44.0026 29.8114 53.5591 38.066C55.0073 39.3159 54.1254 41.6906 52.2127 41.6906Z" fill="url(#paint4_linear_111_4296)"></path><path d="M51.3264 41.6906H52.2128C54.1256 41.6906 55.0069 39.316 53.5593 38.0655C45.5384 31.1393 37.9528 19.9037 33.8037 10.2625L27.1062 10.6203C25.379 14.5685 23.0869 18.7694 20.4329 22.8237L20.2252 23.5752L19.5476 25.4145L35.5855 41.4524C36.4566 40.9928 36.9354 39.937 36.5696 38.9214C36.5628 38.9022 36.5555 38.883 36.5487 38.8639C36.4222 38.5115 36.9106 38.2738 37.1076 38.5917C37.2004 38.741 37.2941 38.8897 37.3887 39.0378C38.4377 40.6851 40.2472 41.6906 42.2006 41.6906H43.1384C44.4798 41.6906 45.2674 40.19 44.5121 39.0811C44.4962 39.0586 44.481 39.0354 44.4651 39.0123C44.1156 38.4974 44.8107 37.9186 45.2476 38.3613C45.7631 38.8831 46.2859 39.3962 46.8149 39.8987C48.031 41.0538 49.6491 41.6906 51.3264 41.6906Z" fill="url(#paint5_linear_111_4296)"></path><path d="M47.3672 26.3337H46.6784C45.3764 26.3337 44.1191 25.8401 43.1758 24.9425C42.7633 24.5516 42.3576 24.1535 41.9591 23.7483C41.6198 23.4046 41.0801 23.8534 41.3505 24.2532C41.3635 24.2723 41.3748 24.2893 41.3882 24.308C41.9737 25.1684 41.3622 26.333 40.3207 26.333H39.5929C38.0753 26.333 36.6719 25.5522 35.856 24.2734C35.7826 24.1582 35.7109 24.0436 35.6375 23.9268C35.4851 23.6811 35.1052 23.8653 35.2045 24.1386C35.2089 24.1545 35.2146 24.1685 35.2204 24.1825C35.5974 25.2315 34.8177 26.3331 33.7044 26.3331H33.2341C31.9255 26.3331 30.8233 25.3665 30.6319 24.0719C30.5676 23.623 30.4982 23.623 30.4339 24.0719C30.2424 25.3665 29.1404 26.333 27.8316 26.333H27.3642C26.2499 26.333 25.4684 25.2299 25.8466 24.1798C25.8529 24.1656 25.8568 24.1498 25.8625 24.1351C25.9608 23.8625 25.5824 23.6778 25.4294 23.9241C25.3561 24.042 25.2833 24.1582 25.2097 24.2734C24.3957 25.5522 22.9898 26.333 21.4728 26.333H20.7451C19.7035 26.333 19.0921 25.1684 19.6775 24.308C19.6905 24.2892 19.7023 24.2724 19.7153 24.253C19.9858 23.8534 19.4461 23.4046 19.1069 23.7483C18.708 24.1532 18.3023 24.5513 17.89 24.9425C16.9467 25.8401 15.6894 26.3336 14.3875 26.3336H13.6986C12.2143 26.3336 11.5295 24.4896 12.6531 23.5187C18.8798 18.1421 24.7694 9.42009 27.9915 1.93612C28.0828 1.72338 28.1729 1.51015 28.2619 1.29642C28.2636 1.29469 28.2636 1.29469 28.2636 1.29353C28.7221 0.519567 29.5666 0.00012207 30.5332 0.00012207C31.4998 0.00012207 32.3438 0.519567 32.8028 1.29368C32.8028 1.29469 32.8028 1.29469 32.8045 1.29642C32.892 1.50744 32.9829 1.72207 33.0748 1.93612C36.297 9.41995 42.1866 18.1421 48.4133 23.5187C49.5363 24.4896 48.8514 26.3337 47.3672 26.3337Z" fill="url(#paint6_linear_111_4296)"></path><path d="M54.2345 69.2559C51.5947 69.3716 48.5154 69.3716 45.8754 69.2559C45.1619 69.2249 44.6457 68.562 44.7881 67.8619L45.207 65.799L46.1295 59.0715H53.9804L54.903 65.799L55.322 67.8619C55.4642 68.5626 54.9482 69.2249 54.2345 69.2559Z" fill="url(#paint7_linear_111_4296)"></path><path d="M55.322 67.8619L54.903 65.799L53.9804 59.0715H46.1295L45.6316 62.7017L52.2495 69.3191C52.9281 69.3051 53.5943 69.2841 54.2345 69.2559C54.9482 69.2249 55.4642 68.5626 55.322 67.8619Z" fill="url(#paint8_linear_111_4296)"></path><path d="M27.7372 62.6962H28.6496C30.3761 62.6962 32.0415 62.0407 33.2937 60.8516C33.8399 60.3328 34.3776 59.8053 34.9067 59.2691C35.3568 58.8136 36.072 59.4092 35.713 59.9393C35.6965 59.963 35.6808 59.9867 35.6645 60.0104C34.8869 61.1519 35.6977 62.6961 37.0787 62.6961H38.0442C40.0552 62.6961 41.9176 61.6607 42.9983 59.9647C43.0959 59.811 43.1928 59.6569 43.2891 59.5023C43.4917 59.1755 43.9937 59.4199 43.8637 59.7818C43.8565 59.802 43.8491 59.8218 43.8423 59.8416C43.3409 61.2321 44.3764 62.6961 45.8545 62.6961H46.4731C48.2093 62.6961 49.6698 61.4151 49.9228 59.6971C50.0103 59.1031 50.1001 59.1031 50.187 59.6971C50.4399 61.4151 51.9011 62.6961 53.6371 62.6961H54.2598C55.7355 62.6961 56.7699 61.2345 56.2691 59.8455C56.2623 59.8259 56.2551 59.8061 56.2477 59.7857C56.1178 59.4233 56.6198 59.1788 56.8235 59.5057C56.9189 59.6598 57.0155 59.8134 57.1126 59.9653C58.1927 61.6607 60.0553 62.6961 62.0657 62.6961H63.0312C64.412 62.6961 65.2227 61.1515 64.4454 60.0098C64.4289 59.9861 64.4132 59.9624 64.3968 59.9387C64.0377 59.4086 64.7524 58.8136 65.203 59.2691C65.7321 59.8051 66.2698 60.3325 66.816 60.851C68.0682 62.0405 69.7337 62.6961 71.4602 62.6961H72.3725C74.3417 62.6961 75.2491 60.2515 73.7586 58.9643C61.4062 48.2972 50.0549 27.7021 50.0549 17.5289C50.0549 27.7021 38.7035 48.2972 26.3512 58.9643C24.8607 60.2521 25.768 62.6961 27.7372 62.6961V62.6962Z" fill="url(#paint9_linear_111_4296)"></path><path d="M73.7586 58.9649C65.268 51.6321 57.2498 39.6084 53.0669 29.5037H47.0429C45.1177 34.1547 42.3796 39.2115 39.157 44.0312L39.236 44.4191L38.8154 46.415L54.9746 62.5742C56.045 62.1959 56.6835 60.9962 56.2692 59.8455C56.2619 59.8259 56.2551 59.8061 56.2478 59.7857C56.1174 59.4234 56.6198 59.1782 56.823 59.5057C56.9187 59.6594 57.015 59.8126 57.1121 59.9654C58.1922 61.6607 60.0553 62.6961 62.0657 62.6961H63.0312C64.4121 62.6961 65.2227 61.1515 64.4454 60.0099C64.4291 59.9863 64.4129 59.9626 64.3969 59.9388C64.0371 59.4086 64.7524 58.8136 65.2025 59.2692C65.7319 59.805 66.2698 60.3323 66.816 60.851C68.0677 62.0405 69.7333 62.6961 71.4603 62.6961H72.372C74.3419 62.6961 75.2492 60.2521 73.7586 58.9649Z" fill="url(#paint10_linear_111_4296)"></path><path d="M67.7011 46.835H66.9803C65.6151 46.835 64.298 46.3167 63.3078 45.3767C62.8759 44.9666 62.4509 44.5494 62.033 44.1251C61.6766 43.7655 61.1115 44.2363 61.3949 44.6552C61.4074 44.6738 61.4204 44.6931 61.4334 44.7116C62.0482 45.6139 61.4074 46.835 60.3154 46.835H59.5523C57.9625 46.835 56.4894 46.017 55.6356 44.676C55.5584 44.5554 55.482 44.4342 55.4066 44.3125C55.2461 44.0534 54.8493 44.2481 54.952 44.5349C54.9571 44.5501 54.9627 44.5666 54.9683 44.5818C55.3642 45.6799 54.5472 46.835 53.3797 46.835H52.8868C51.5149 46.835 50.3592 45.8227 50.1594 44.4644C50.09 43.9941 50.0199 43.9941 49.9509 44.4644C49.7506 45.8227 48.595 46.835 47.2229 46.835H46.7335C45.5654 46.835 44.7468 45.6776 45.1425 44.5779C45.1482 44.5625 45.1544 44.5461 45.1589 44.5309C45.2622 44.2442 44.8653 44.0511 44.7045 44.3102C44.6287 44.4328 44.5526 44.5547 44.4752 44.675C43.6205 46.017 42.148 46.835 40.5581 46.835H39.7949C38.7024 46.835 38.0622 45.6137 38.6765 44.7116C38.6895 44.6931 38.7025 44.6744 38.7155 44.6552C38.9982 44.2362 38.4331 43.7659 38.0768 44.1251C37.6591 44.5495 37.2341 44.9668 36.8021 45.3767C35.8117 46.3167 34.4946 46.835 33.1295 46.835H32.4085C30.8514 46.835 30.1338 44.9025 31.3126 43.8851C39.0909 37.166 46.3682 25.4692 49.0093 16.9215C49.453 15.4807 49.767 14.128 49.9285 12.9051C49.9707 12.9023 50.0131 12.9012 50.0549 12.9012C50.0972 12.9012 50.139 12.9024 50.1813 12.9051C50.3428 14.1286 50.6568 15.4807 51.1005 16.9217C53.7416 25.4692 61.019 37.1662 68.7971 43.8851C69.9759 44.9025 69.2583 46.835 67.7013 46.835H67.7011Z" fill="url(#paint11_linear_111_4296)"></path><path d="M66.9802 46.835H67.7012C69.2582 46.835 69.9758 44.9025 68.797 43.8846C62.2682 38.2467 56.0941 29.1018 52.7173 21.2542L47.2657 21.5454C45.86 24.759 43.9946 28.1786 41.834 31.478L41.6646 32.0899L41.113 33.5867L54.1671 46.6414C54.8763 46.2664 55.2664 45.4078 54.9682 44.5812L54.9513 44.5338C54.8487 44.2476 55.2454 44.054 55.4065 44.3125C55.482 44.4345 55.5582 44.5558 55.6351 44.676C56.4887 46.0164 57.9616 46.835 59.5515 46.835H60.3147C61.4067 46.835 62.0475 45.6137 61.4333 44.7111C61.4203 44.6923 61.4072 44.6739 61.3948 44.6552C61.1108 44.2358 61.6759 43.7649 62.0316 44.1251C62.4503 44.549 62.8757 44.9662 63.3075 45.3767C64.2979 46.3167 65.6144 46.835 66.9801 46.835H66.9802Z" fill="url(#paint12_linear_111_4296)"></path><path d="M63.7572 34.3354H63.1965C62.1368 34.3354 61.1138 33.9333 60.3453 33.2033C60.0098 32.8848 59.6797 32.5607 59.3552 32.2311C59.0791 31.9516 58.6397 32.317 58.86 32.6422C58.8707 32.6574 58.8798 32.6715 58.8905 32.6867C59.367 33.3868 58.8695 34.3352 58.0216 34.3352H57.4294C56.1941 34.3352 55.0513 33.6996 54.3881 32.6591C54.3282 32.5653 54.2695 32.4716 54.2096 32.3768C54.086 32.1764 53.7765 32.3265 53.8573 32.549C53.8607 32.5614 53.8657 32.5732 53.8703 32.5851C54.1768 33.4387 53.5428 34.3354 52.6366 34.3354H52.2539C51.1886 34.3354 50.2915 33.5488 50.1357 32.4948C50.0832 32.1295 50.0273 32.1295 49.9742 32.4948C49.8188 33.5488 48.9217 34.3352 47.8564 34.3352H47.4759C46.5686 34.3352 45.933 33.4371 46.2411 32.5828C46.2457 32.5709 46.2491 32.5581 46.2536 32.5462C46.3338 32.3236 46.0255 32.1741 45.9013 32.3745C45.8421 32.4705 45.7822 32.5653 45.7224 32.6591C45.0596 33.6997 43.9158 34.3352 42.681 34.3352H42.0882C41.2408 34.3352 40.7433 33.3868 41.2198 32.6867C41.2299 32.6715 41.2396 32.6574 41.2503 32.6422C41.4706 32.317 41.0313 31.9516 40.7551 32.2311C40.4304 32.5607 40.1001 32.8848 39.7644 33.2033C38.9965 33.9339 37.9729 34.3354 36.9138 34.3354H36.3532C35.1444 34.3354 34.5879 32.8341 35.5019 32.0443C40.57 27.6677 45.3638 20.5686 47.9863 14.4769C48.0615 14.3031 48.1352 14.1286 48.2065 13.9563C48.2076 13.9553 48.2076 13.9553 48.2076 13.9536C48.5814 13.324 49.2685 12.9012 50.0549 12.9012C50.842 12.9012 51.5291 13.324 51.9027 13.9536C51.9027 13.9553 51.9027 13.9553 51.9039 13.9565C51.9761 14.1304 52.0495 14.3039 52.1241 14.4769C54.7465 20.5686 59.5403 27.6677 64.6086 32.0443C65.5226 32.8341 64.9653 34.3352 63.7572 34.3352V34.3354Z" fill="url(#paint13_linear_111_4296)"></path></g><defs><linearGradient id="paint0_linear_111_4296" x1="25.5513" y1="63.0332" x2="34.1714" y2="63.0332" gradientUnits="userSpaceOnUse"><stop stop-color="#C08552"></stop><stop offset="1" stop-color="#895738"></stop></linearGradient><linearGradient id="paint1_linear_111_4296" x1="35.046" y1="67.0185" x2="25.6674" y2="51.3235" gradientUnits="userSpaceOnUse"><stop stop-color="#895738" stop-opacity="0"></stop><stop offset="1" stop-color="#5E3023"></stop></linearGradient><linearGradient id="paint2_linear_111_4296" x1="7.5165" y1="33.4316" x2="47.3458" y2="33.4316" gradientUnits="userSpaceOnUse"><stop stop-color="#7AC943"></stop><stop offset="0.456" stop-color="#5FC146"></stop><stop offset="1" stop-color="#39B54A"></stop></linearGradient><linearGradient id="paint3_linear_111_4296" x1="39.3734" y1="51.6909" x2="30.0242" y2="25.3693" gradientUnits="userSpaceOnUse"><stop stop-color="#39B54A" stop-opacity="0"></stop><stop offset="0.107" stop-color="#2FAB48" stop-opacity="0.106"></stop><stop offset="0.455" stop-color="#159043" stop-opacity="0.455"></stop><stop offset="0.764" stop-color="#06803F" stop-opacity="0.765"></stop><stop offset="1" stop-color="#007A3E"></stop></linearGradient><linearGradient id="paint4_linear_111_4296" x1="12.3336" y1="20.8454" x2="43.8267" y2="20.8454" gradientUnits="userSpaceOnUse"><stop stop-color="#7AC943"></stop><stop offset="0.456" stop-color="#5FC146"></stop><stop offset="1" stop-color="#39B54A"></stop></linearGradient><linearGradient id="paint5_linear_111_4296" x1="34.8905" y1="29.095" x2="17.918" y2="2.91723" gradientUnits="userSpaceOnUse"><stop stop-color="#39B54A" stop-opacity="0"></stop><stop offset="0.107" stop-color="#2FAB48" stop-opacity="0.106"></stop><stop offset="0.455" stop-color="#159043" stop-opacity="0.455"></stop><stop offset="0.764" stop-color="#06803F" stop-opacity="0.765"></stop><stop offset="1" stop-color="#007A3E"></stop></linearGradient><linearGradient id="paint6_linear_111_4296" x1="16.402" y1="13.1668" x2="40.8552" y2="13.1668" gradientUnits="userSpaceOnUse"><stop stop-color="#7AC943"></stop><stop offset="0.456" stop-color="#5FC146"></stop><stop offset="1" stop-color="#39B54A"></stop></linearGradient><linearGradient id="paint7_linear_111_4296" x1="46.0004" y1="64.207" x2="53.0168" y2="64.207" gradientUnits="userSpaceOnUse"><stop stop-color="#C08552"></stop><stop offset="1" stop-color="#895738"></stop></linearGradient><linearGradient id="paint8_linear_111_4296" x1="53.7285" y1="67.4509" x2="46.0948" y2="54.676" gradientUnits="userSpaceOnUse"><stop stop-color="#895738" stop-opacity="0"></stop><stop offset="1" stop-color="#5E3023"></stop></linearGradient><linearGradient id="paint9_linear_111_4296" x1="31.3209" y1="40.1127" x2="63.7399" y2="40.1127" gradientUnits="userSpaceOnUse"><stop stop-color="#7AC943"></stop><stop offset="0.456" stop-color="#5FC146"></stop><stop offset="1" stop-color="#39B54A"></stop></linearGradient><linearGradient id="paint10_linear_111_4296" x1="57.2508" y1="54.975" x2="49.641" y2="33.5505" gradientUnits="userSpaceOnUse"><stop stop-color="#39B54A" stop-opacity="0"></stop><stop offset="0.107" stop-color="#2FAB48" stop-opacity="0.106"></stop><stop offset="0.455" stop-color="#159043" stop-opacity="0.455"></stop><stop offset="0.764" stop-color="#06803F" stop-opacity="0.765"></stop><stop offset="1" stop-color="#007A3E"></stop></linearGradient><linearGradient id="paint11_linear_111_4296" x1="35.2419" y1="29.8682" x2="60.8756" y2="29.8682" gradientUnits="userSpaceOnUse"><stop stop-color="#7AC943"></stop><stop offset="0.456" stop-color="#5FC146"></stop><stop offset="1" stop-color="#39B54A"></stop></linearGradient><linearGradient id="paint12_linear_111_4296" x1="53.6017" y1="36.5831" x2="39.7871" y2="15.2756" gradientUnits="userSpaceOnUse"><stop stop-color="#39B54A" stop-opacity="0"></stop><stop offset="0.107" stop-color="#2FAB48" stop-opacity="0.106"></stop><stop offset="0.455" stop-color="#159043" stop-opacity="0.455"></stop><stop offset="0.764" stop-color="#06803F" stop-opacity="0.765"></stop><stop offset="1" stop-color="#007A3E"></stop></linearGradient><linearGradient id="paint13_linear_111_4296" x1="38.5531" y1="23.6182" x2="58.4568" y2="23.6182" gradientUnits="userSpaceOnUse"><stop stop-color="#7AC943"></stop><stop offset="0.456" stop-color="#5FC146"></stop><stop offset="1" stop-color="#39B54A"></stop></linearGradient><clipPath id="clip0_111_4296"><rect width="74" height="74" fill="white" transform="translate(0.5)"></rect></clipPath></defs></svg>